<svg id="uuid-08f580a2-5fb3-4a3e-b8b6-c61681a03cf3" xmlns="http://www.w3.org/2000/svg" width="11.37mm" height="11.3mm" viewBox="0 0 32.24 32.03"><g id="uuid-70882571-a3bb-44bf-82fd-3efc1e22e0f0"><path d="M31.55,0C23.34.18.24,12.78,0,14.51c-.24,1.78,4.37,5.03,4.33,5.66-.05.64-3.05,1.56-3.29,3.34.09,2.38,5.91,7.16,8.02,7.51,1.6-.11,2.73-3.26,3.24-3.32.5-.06,3.56,4.22,5.23,4.33,1.62.12,14.75-22.67,14.7-31.35C32.24.29,31.93,0,31.55,0ZM8.46,18.97c-1.74,1.29-5.75-3.74-4.32-4.95,2.06-1.73,5.92,3.76,4.32,4.95ZM17.55,28.06c-1.83-.27-5.48-3.92-4.59-4.86.89-.93,2.72,1.16,3.92.98,1.21-.18,11.31-20.27,13.15-20.27,1.24.62-10.65,24.42-12.48,24.15Z" fill="currentColor" stroke-width="0"/></g></svg>