<svg id="uuid-51b945bd-7286-47d8-b9cc-2802a4293351" xmlns="http://www.w3.org/2000/svg" width="9.24mm" height="11.22mm" viewBox="0 0 26.19 31.81"><g id="uuid-e62d24e0-f492-412a-bfd2-934004eb708b"><path d="M26.19,23.72c0-3.64-5.34-14.26-13.09-14.26S0,19.28,0,23.36c0,2.47.34,8.66,13.47,8.44,13.13-.22,12.72-6.36,12.72-8.08ZM24.01,25.29c-1.18,3.34-6.7,4.07-6.82,3.65-.14-.52,2.86-1.93,3.88-4.19,1.04-2.3-.24-5.32.22-5.47.47-.16,3.8,2.95,2.72,6.01Z" fill="currentColor" stroke-width="0"/><path d="M17.59,9.52c-.55-.28-1.12-.51-1.71-.69,1.42-1.5,2.07-3.61.93-3.81-1.48-.26-1.85,3.1-4.01,3.17-3.28.1-1.87-4.8-4.35-4.09-1.36.39-.06,3.33,1.42,4.86-.8.26-1.56.62-2.29,1.06-1.86-1.59-4.33-4.18-3.83-6.45.56-.75,3.63-.06,4.3-.48C9.6.72,12.05.03,13.1,0c1.04-.03,3.27,1.22,5.02,3.09.45.24,2.71-.09,3.03.27.37,1.91-1.83,4.48-3.56,6.16Z" fill="currentColor" stroke-width="0"/></g></svg>