<svg id="uuid-144432f1-9d18-4ffb-8306-453a2bc2b971" xmlns="http://www.w3.org/2000/svg" width="6.52mm" height="6.52mm" viewBox="0 0 18.49 18.49"><g id="uuid-297c5416-3585-469b-ba00-cef040d12692"><path d="M9.25,0C4.14,0,0,4.14,0,9.25s4.14,9.24,9.25,9.24,9.24-4.14,9.24-9.24S14.35,0,9.25,0ZM2.7,9.05c0-3.74,3.03-6.78,6.77-6.78,1.38,0,2.66.41,3.73,1.12L3.8,12.74c-.7-1.06-1.1-2.33-1.1-3.69ZM9.47,15.82c-1.42,0-2.73-.44-3.82-1.18,1.71-1.7,7.53-7.49,9.41-9.4.75,1.09,1.18,2.4,1.18,3.81,0,3.74-3.03,6.77-6.77,6.77Z" fill="currentColor" stroke-width="0"/></g></svg>