<svg id="uuid-23ba7711-d5aa-4988-b9b4-2500235eb7c3" xmlns="http://www.w3.org/2000/svg" width="7.61mm" height="6.97mm" viewBox="0 0 21.56 19.77"><g id="uuid-f47163c2-c6e2-42b3-97d3-f5dd61096876"><path d="M.07,1.69c.06-.49.43-.89.91-.99C3.7.12,8.15,2.26,9.98,7.85l.06,7.67s-2.7,4.69-4.94,4.22c-1.69-.36-2.34-5.91,1.24-7.03C.71,10.44.96,9.3,1.09,4.83c0,0-.95-.52-1.05-1.24-.06-.47-.05-1.13.03-1.9Z" fill="currentColor" stroke-width="0"/><path d="M12.42,2.56c-.08.04-.13.11-.15.19-.09.59-.51,2.89-1.47,2.82-.96.07-1.39-2.23-1.48-2.82-.01-.08-.06-.15-.14-.19-.49-.23-2.19-1.12-1.38-2.23.79-1.08,1.8.75,2.1,1.36.05.12.08.24.09.37,0,.58.11,2.39.81,2.76.7-.37.8-2.18.81-2.76,0-.13.03-.25.09-.37.3-.61,1.3-2.44,2.09-1.36.81,1.11-.89,2-1.37,2.23Z" fill="currentColor" stroke-width="0"/><path d="M21.49,1.69c-.06-.49-.43-.89-.91-.99-2.71-.57-7.16,1.57-9,7.15l-.06,7.67s2.7,4.69,4.94,4.22c1.69-.36,2.34-5.91-1.24-7.03,5.63-2.27,5.38-3.41,5.25-7.88,0,0,.95-.52,1.05-1.24.06-.47.05-1.13-.03-1.9Z" fill="currentColor" stroke-width="0"/></g></svg>