<svg id="uuid-305157ad-e7fa-4e85-8eb6-ac8871ac6b7d" xmlns="http://www.w3.org/2000/svg" width="6.3mm" height="6.41mm" viewBox="0 0 17.85 18.16"><g id="uuid-62387432-5658-4e7f-82a1-b59d361482bd"><path d="M0,9.19C.13,2.23,3.13,3.26,12.56,2.3c0,0-1.05-1.8-.59-2.26s5.88,3.3,5.88,4.25-5.39,3.9-5.79,3.5.53-2.08.53-2.08c-1.32.06-10.29-.35-12.39,3.53-.05.1-.2.06-.2-.05Z" fill="currentColor" stroke-width="0"/><path d="M17.85,8.97c-.13,6.96-3.13,5.94-12.56,6.89,0,0,1.05,1.8.59,2.26S0,14.82,0,13.87s5.39-3.9,5.79-3.5-.53,2.08-.53,2.08c1.32-.06,10.29.35,12.39-3.53.05-.1.2-.06.2.05Z" fill="currentColor" stroke-width="0"/></g></svg>