<svg id="uuid-94cb80e4-096b-4944-8fb0-b0a098141618" xmlns="http://www.w3.org/2000/svg" width="13.33mm" height="11.85mm" viewBox="0 0 37.79 33.6"><g id="uuid-b69f118b-3e1d-4607-bcc8-b4d002c52b0b"><path d="M33.08,3.53C30.33,1.08,26.7-.14,23.01.01l-8.22.33c-5.03.21-9.81,2.64-12.62,6.82C.97,8.93.1,11.05,0,13.49c-.3,8.38,8.91,11.53,8.91,11.53,0,0-.45,4.47-2.96,7.64-.28.37-.04.9.42.92,2.79.13,9.84-.27,11.69-7.37,14.38.24,19.73-5.88,19.72-13.31,0-4.08-2.28-7.2-4.71-9.37ZM11.31,17.19c-1.3,0-2.36-1.05-2.36-2.36s1.06-2.36,2.36-2.36,2.36,1.06,2.36,2.36-1.05,2.36-2.36,2.36ZM18.9,17.19c-1.31,0-2.36-1.05-2.36-2.36s1.05-2.36,2.36-2.36,2.36,1.06,2.36,2.36-1.06,2.36-2.36,2.36ZM26.65,17.19c-1.3,0-2.36-1.05-2.36-2.36s1.06-2.36,2.36-2.36,2.36,1.06,2.36,2.36-1.06,2.36-2.36,2.36Z" fill="currentColor" stroke-width="0"/></g></svg>