<svg id="uuid-7e0d54a3-a5c4-44fc-85cd-65eb1b2265b5" xmlns="http://www.w3.org/2000/svg" width="16.89mm" height="16.89mm" viewBox="0 0 47.88 47.88"><g id="uuid-b028a040-0530-4a0a-b8e7-49f03eb1a8f4"><path d="M37.95,0H9.94C4.45,0,0,4.45,0,9.94v28.01c0,5.49,4.45,9.93,9.94,9.93h28.01c5.49,0,9.93-4.44,9.93-9.93V9.94c0-5.49-4.44-9.94-9.93-9.94ZM44.88,37.95c0,3.82-3.11,6.93-6.93,6.93H9.94c-3.83,0-6.94-3.11-6.94-6.93V9.94c0-3.83,3.11-6.94,6.94-6.94h28.01c1.26,0,2.45.34,3.47.95-13.97,14.93-20.51,25.4-21.6,25.4s-12.84-12.36-14.92-10.69c-2.07,1.66,10.99,25.24,15.33,25.24,5.02,0,20.2-29.36,24-36.86.42.88.65,1.86.65,2.9v28.01Z" fill="currentColor" stroke-width="0"/></g></svg>