<svg id="uuid-c4e89338-f515-4c15-8b02-7657488a5cc3" xmlns="http://www.w3.org/2000/svg" width="16.89mm" height="16.89mm" viewBox="0 0 47.88 47.88"><g id="uuid-4985fa97-858d-4cf8-9160-f13b0ad44d53"><path d="M37.95,3c3.82,0,6.94,3.11,6.94,6.94v28.01c0,3.82-3.11,6.94-6.94,6.94H9.94c-3.82,0-6.94-3.11-6.94-6.94V9.94c0-3.82,3.11-6.94,6.94-6.94h28.01M37.95,0H9.94C4.45,0,0,4.45,0,9.94v28.01c0,5.49,4.45,9.94,9.94,9.94h28.01c5.49,0,9.94-4.45,9.94-9.94V9.94c0-5.49-4.45-9.94-9.94-9.94h0Z" fill="currentColor" stroke-width="0"/></g></svg>