<svg id="uuid-1acba9bc-83b7-47fd-89b6-a0faf382180b" xmlns="http://www.w3.org/2000/svg" width="16.85mm" height="16.85mm" viewBox="0 0 47.76 47.76"><g id="uuid-97e3148f-b19d-4b1f-ba43-a45a7643e1ee"><path d="M34.97,34.76c-3.62,3.62-10.28-6.46-11.06-7.68-1.36,2.17-7.48,11.35-11.13,7.71-3.75-3.76,7.19-10.75,7.78-11.12-1.17-.78-11.66-7.86-7.64-11.62,3.8-3.55,10.24,7.14,10.82,8.11.88-1.45,7.46-11.82,11.3-7.98,3.85,3.85-7.8,11.14-7.8,11.14l-.17.19c1.72,1.06,11.67,7.48,7.9,11.25Z" fill="currentColor" stroke-width="0"/><path d="M23.88,1.75c12.2,0,22.13,9.93,22.13,22.13s-9.93,22.13-22.13,22.13S1.75,36.08,1.75,23.88,11.68,1.75,23.88,1.75M23.88,0h0C10.69,0,0,10.69,0,23.88h0c0,13.19,10.69,23.88,23.88,23.88h0c13.19,0,23.88-10.69,23.88-23.88h0C47.76,10.69,37.07,0,23.88,0h0Z" fill="currentColor" stroke-width="0"/></g></svg>