<svg id="uuid-28cd9059-83fd-4d15-b865-db51badfb696" xmlns="http://www.w3.org/2000/svg" width="7.14mm" height="5.36mm" viewBox="0 0 20.24 15.18"><g id="uuid-0f8f5234-6763-4cfa-92be-f434cde16ed9"><rect x="1.44" y=".69" width="10.3" height="13.75" rx="2.42" ry="2.42" transform="translate(-2.31 2.94) rotate(-21.51)" fill="currentColor" stroke-width="0"/><path d="M16.26,2.9v8.91c0,1.34-1.08,2.42-2.42,2.42h-2.25l1.78-.7c1.24-.49,1.85-1.89,1.36-3.14L10.82.48h3.02c1.34,0,2.42,1.08,2.42,2.42Z" fill="currentColor" stroke-width="0"/><path d="M20.22,4.21l-1.09,8.84c-.16,1.33-1.37,2.27-2.7,2.11l-1.28-.16c1.33,0,2.42-1.08,2.42-2.42V1.44l.54.07c1.33.17,2.27,1.37,2.11,2.7Z" fill="currentColor" stroke-width="0"/></g></svg>