<svg id="uuid-e07c67f4-9fdc-4a8d-8893-15ec00f11d66" xmlns="http://www.w3.org/2000/svg" width="6.36mm" height="6.35mm" viewBox="0 0 18.03 18"><g id="uuid-4f33cf35-6b2b-45b4-9e4f-7e2246348733"><path d="M15.81,14.23c0-1.62-4.41-8.98-6.84-8.98S2.23,12.65,2.23,14.16c-.36,2.9,1.41,3.78,2.31,3.78,1.45,0,1.41-2.74,1.59-3.59.03-.13.17-.21.3-.18,2.23.54,4.4.15,5.12,0,.14-.03.27.05.3.19.18.86.11,3.64,1.61,3.64.93,0,2.75-.78,2.35-3.77ZM8.84,13.41c-1.24,0-2.24-1-2.24-2.24s1-2.24,2.24-2.24,2.24,1,2.24,2.24-1,2.24-2.24,2.24Z" fill="currentColor" stroke-width="0"/><path d="M18.03,12.74c0,.87-.8,1.08-1.27.72-.04-.03-.08-.06-.12-.1-.87-2.81-4.87-9.11-7.67-9.11S2.25,10.7,1.41,13.34c-.05.04-.09.09-.14.12-.47.36-1.27.15-1.27-.72.02-.1.05-.21.07-.32H.07C1.05,8.64,5.12,1.39,9,1.39h.03c.72,0,1.45.26,2.17.71-.11.21-.18.46-.18.73v.28c0,.87.7,1.57,1.57,1.57h.65v.7c0,.86.7,1.56,1.56,1.56h.38c.1,0,.21-.01.3-.03,1.19,1.93,2.09,4,2.48,5.5h0c.02.12.05.23.07.33Z" fill="currentColor" stroke-width="0"/><path d="M17.96,2.83v.28c0,.31-.26.57-.57.57h-1.65v1.7c0,.31-.25.56-.56.56h-.38c-.31,0-.56-.25-.56-.56v-1.7h-1.65c-.32,0-.57-.26-.57-.57v-.28c0-.31.25-.57.57-.57h1.65V.56c0-.31.25-.56.56-.56h.38c.31,0,.56.25.56.56v1.7h1.65c.31,0,.57.26.57.57Z" fill="currentColor" stroke-width="0"/></g></svg>