<svg id="uuid-fa976e75-f48b-406e-957d-bcf27c798c7b" xmlns="http://www.w3.org/2000/svg" width="10.19mm" height="9.82mm" viewBox="0 0 28.89 27.83"><g id="uuid-67eb0a25-5ea8-4688-8ae1-6f00207054c8"><path d="M24.81,17.89c-1.42-3.8-6.79-12.18-10.44-12.18s-8.99,7.95-10.35,11.7c-.25.68-.31,1.42-.19,2.14.82,5.18,1.65,8.18,3.1,8.18.81,0,2.45.01,4.37.02v-4.57c0-1.76,1.42-3.18,3.18-3.18.88,0,1.68.35,2.25.93.58.58.94,1.37.94,2.25v4.62c1.86.02,3.45.03,4.26.03,1.48,0,2.83-2.78,3.17-7.93.04-.68-.05-1.38-.29-2.01ZM14.44,15.67c-1.59,0-2.88-1.29-2.88-2.89s1.29-2.88,2.88-2.88,2.89,1.29,2.89,2.88-1.29,2.89-2.89,2.89Z" fill="currentColor" stroke-width="0"/><path d="M28.89,15.95c0,1.03-1.26,1.32-1.73,1.33-.46.01-1.26.05-1.78-1.03-2.47-5.12-6.68-9.43-7.64-10.41-.88-.91-1.87-1.37-3.3-1.37s-2.47.51-3.29,1.11c-1.11.81-5.05,5.23-7.64,10.68-.51,1.08-1.32,1.04-1.78,1.03-.47-.01-1.73-.3-1.73-1.33s1.63-2.17,2.52-3.36S7.13,4.95,8.02,3.65,11.56,0,14.44,0h.01s0,0,0,0c2.88,0,5.53,2.35,6.42,3.65.89,1.3,4.61,7.75,5.5,8.94.89,1.19,2.52,2.32,2.52,3.36Z" fill="currentColor" stroke-width="0"/></g></svg>