<svg id="uuid-dc4b4bd3-4f39-4a98-8ebb-1d32bd85426a" xmlns="http://www.w3.org/2000/svg" width="6.35mm" height="7.06mm" viewBox="0 0 17.99 20.02"><g id="uuid-67d573df-b3d5-44f5-aca4-42ec5723301b"><path d="M17.86,12.24c-1.95-1.51-6.35-6.25-8.86-6.25S3.26,9.71.12,12.33c-.15.13-.16.36,0,.5,1.47,1.43,5.06,7.19,8.71,7.19s7.58-5.84,9.05-7.26c.16-.15.16-.39,0-.52ZM15.12,11.77c-1.01.98-2.71,4.38-6.25,4.38s-5-3.35-6.01-4.33c-.11-.1-.1-.26,0-.35,2.17-1.81,4.11-4.59,6.13-4.59s4.77,3.49,6.12,4.53c.11.09.11.25,0,.36Z" fill="currentColor" stroke-width="0"/><path d="M8.99,8.38c-1.82,0-3.31,1.48-3.31,3.32s1.48,3.31,3.31,3.31,3.31-1.48,3.31-3.31-1.47-3.32-3.31-3.32ZM8.99,13.02c-.56,0-1.01-.45-1.01-1.01s.45-1.01,1.01-1.01,1.01.45,1.01,1.01-.45,1.01-1.01,1.01Z" fill="currentColor" stroke-width="0"/><path d="M2.09,3.05c1.01,1.12,2.03.94,2.5,1.29.61.45.72,2.13-.16,2.76-.51-1.54-1.39-.84-2-1.14-.53-.26-1-2-.34-2.91Z" fill="currentColor" stroke-width="0"/><path d="M15.8,3.05c-1.01,1.12-2.03.94-2.5,1.29-.61.45-.72,2.13.16,2.76.51-1.54,1.39-.84,2-1.14.53-.26,1-2,.34-2.91Z" fill="currentColor" stroke-width="0"/><path d="M8.99,5.08c-1.02,0-1.22-1.23-1.12-2.03s.95-1.36,1.59-3.05c1.31,1.94.54,5.08-.47,5.08Z" fill="currentColor" stroke-width="0"/></g></svg>