<svg id="uuid-fb092514-56b0-4555-b6af-8ac3f13cefb1" xmlns="http://www.w3.org/2000/svg" width="6.34mm" height="6.37mm" viewBox="0 0 17.97 18.06"><g id="uuid-a6c8b5af-b2c7-4550-8e52-ce23aad9c9ec"><path d="M6.43,9.51c-.24.01-.46.07-.63.21-.12.1-.22.23-.28.39-.78-.68-1.64-1.38-2.1-1.74-1.01-.8.19-1.98.99-1.31,0,0,.56.46,1.25,1.02,0,.33.14.67.4.99.11.13.24.28.37.44Z" fill="currentColor" stroke-width="0"/><path d="M7.1,6.93c-.13-.02-.27-.03-.42-.01-.42.06-.78.34-.94.74-.12-.11-.23-.2-.32-.27-.73-.61.16-1.79,1.19-.99.12.09.26.2.43.34.01.06.03.13.06.19Z" fill="currentColor" stroke-width="0"/><path d="M9.03,5.98c-.62-.87-2.11,0-1.3,1.05s3.13,4.25,2.95,4.37-2.34-2.63-3.05-3.56c-.74-.97-2.03-.11-1.18.92s2.9,3.35,2.78,3.45-1.45-1.03-2.19-1.83c-.82-.9-1.6.04-.8,1.16s3.84,4.78,4.3,5.32c.68.81,2.51,1.45,3.86,1.11s3.14-2.46,3.37-3.22.33-2.69-.12-3.48-1.88-2.99-2.37-3.64-1.66-.13-1.15.91.93,1.94.93,1.94c0,0-2.79-3.49-3.68-4.62-.82-1.05-2-.1-1.43.68.64.87,2.43,3.21,2.24,3.33s-3.16-3.9-3.16-3.9" fill="currentColor" stroke-width="0"/><path d="M10.15,17.18c.12.14.26.27.43.39-.85.01-1.69-.19-2.17-.54-.56-.41-4.31-3.16-5.34-4.03-1.02-.88-.5-1.95.49-1.29.89.59,2.41,1.35,2.51,1.22.09-.13-2.39-1.83-3.45-2.62-1.06-.77-.04-1.89.9-1.15.4.32,1.16.91,1.89,1.46-.01.36.12.77.42,1.2.83,1.18,3.99,4.96,4.32,5.36Z" fill="currentColor" stroke-width="0"/><rect x="0" y="4.69" width="3.3" height="1.34" rx=".67" ry=".67" fill="currentColor" stroke-width="0"/><rect x="5.15" y=".98" width="3.3" height="1.34" rx=".67" ry=".67" transform="translate(8.44 -5.15) rotate(90)" fill="currentColor" stroke-width="0"/><rect x="1.58" y="1.58" width="3.73" height="1.34" rx=".67" ry=".67" transform="translate(3.07 -1.85) rotate(51.61)" fill="currentColor" stroke-width="0"/></g></svg>