<svg id="uuid-79028234-be3d-416e-940b-cd2d7120ff7f" xmlns="http://www.w3.org/2000/svg" width="7.46mm" height="7.45mm" viewBox="0 0 21.16 21.11"><g id="uuid-6ed29ec9-5be8-409e-ade9-fa63824cb7aa"><path d="M20.47,11.54c-.24-.5-.74-.72-1.27-.88-.55-.17-1.2-.26-1.92-.28.04.23.04.47.01.71.93.06,1.55.29,1.68.74.33,1.16-1.76,2.69-5.46,3.75-3.69,1.07-7.4,1.26-7.73.11-.33-1.16,1.88-2.63,5.57-3.69.09-.02.17-.05.26-.07.03-.06.07-.12.11-.17-.26-.14-.53-.31-.73-.51-2.08.58-4.01,1.4-5.23,2.3-.69.51-1.16,1.26-1.17,2.11,0,.61.01,1.04.03,1.31.01.22-.14.42-.35.47C.6,18.43-.23,18.55.05,19.66c.27,1.06,1.65.6,5.34-.52.22-.07.46.02.58.22.33.6,1.36,1.75,4.35,1.75,5.97-.38,10.27-2.81,10.84-5.55-.03-1.88-.3-3.22-.69-4.02Z" fill="currentColor" stroke-width="0"/><path d="M8.45,9.48c0,1.08-.87,1.95-1.95,1.95s-1.95-.87-1.95-1.95.87-2.29,1.95-2.29,1.95,1.22,1.95,2.29Z" fill="currentColor" stroke-width="0"/><path d="M16.61,3.82c0,.84-.68,1.52-1.52,1.52s-1.52-.68-1.52-1.52.68-1.79,1.52-1.79,1.52.95,1.52,1.79Z" fill="currentColor" stroke-width="0"/><path d="M7.21,4.42s-.09,1.81-1.8,1.43c-1.49-.33-1.25-5.26,1.36-5.75s4.72.96,4.61,2.21-1.67.98-1.67.98c0,0,.71,1.24.6,1.8-.33.56-1.08.92-2.08.92-.33,0-1.01-1.59-1.01-1.59Z" fill="currentColor" stroke-width="0"/><path d="M13.66,9.46s-.95-1.26.41-1.96c1.18-.61,3.77,2.82,2.3,4.6s-3.69,2-4.31,1.1.57-1.59.57-1.59c0,0-1.17-.43-1.41-.87-.09-.56.21-1.22.87-1.78.22-.19,1.57.5,1.57.5Z" fill="currentColor" stroke-width="0"/></g></svg>