<svg id="uuid-0d5d28cd-fad8-4358-89c3-906d5bd0c386" xmlns="http://www.w3.org/2000/svg" width="7.64mm" height="8.39mm" viewBox="0 0 21.64 23.79"><g id="uuid-6337609a-9922-4ec1-8334-bc4f3a347abe"><path d="M6.05,1.24h0c.06-.76.73-1.32,1.49-1.23l12.88,1.39c.7.08,1.23.66,1.23,1.37v18.41c0,.72-.55,1.33-1.27,1.4l-12.8,1.21c-.87.08-1.62-.6-1.62-1.48h0c0-.75.55-1.38,1.29-1.47l10.65-1.37c.41-.05.71-.4.72-.81l.02-13.84c0-.2-.14-.36-.34-.39l-11.11-1.74c-.7-.11-1.19-.74-1.14-1.44Z" fill="currentColor" stroke-width="0"/><path d="M.05,16.29L4.19,7.09c.29-.66,1.26-.55,1.4.16l.46,2.29c.03.15.2.22.33.13,1.29-1,7.12-4.72,11.51,5.72.09.22-.2.4-.35.21-4.73-6.02-8.32-2.85-9.18-1.93-.11.12-.1.31.02.42l1.82,1.66c.55.5.2,1.41-.55,1.41H.62c-.45,0-.75-.46-.56-.87Z" fill="currentColor" stroke-width="0"/></g></svg>