<svg id="uuid-e2b6233d-bba3-4474-912e-30d0c5160e10" xmlns="http://www.w3.org/2000/svg" width="7.36mm" height="7.46mm" viewBox="0 0 20.87 21.16"><g id="uuid-889ee8ff-2040-43ea-bce2-e6b4b06ffd93"><path d="M15.91,6.32c.8-.6,2.08-1.09,2.6-1.41.8-.51,2.08-1.67,2.24-2.34.33-1.51.04-2.92-1.54-2.49C6.87,3.77,3.19,11.28.37,17.49c-.3.65-.42,1.38-.35,2.09.13,1.22.49,1.58,1.17,1.58,1.39,0,1.81-3.09,1.92-4.38.38.32.87.51,1.4.51,1.2,0,2.17-.97,2.17-2.17s-.97-2.16-2.17-2.16h-.06C9.11,3.95,19.06.61,19.78.73c.53.08.64.83.48,1.58-.16.76-1.01,1.47-1.87,2.05-.86.58-1.81.89-2.74,1.56-.89.65-2.51,2.45-2.83,3.04-.32.52-.45,1.1-.49,1.56-.16.03-.32.07-.48.13-1.04,1.55-.51,3.09-.46,4.59-.25.92-.13,2.05-.13,2.05,0,0,1.36.22,1.93-.78,0,0,.59.96,2.57.67-.37.76-.24,2.39.32,3.63.08-1.19,1.31-2.45,1.22-3.52,1.43.16,2.3-.57,3.43-.17,0,0-.77-1.56-3.43-1.39.08-.49,0-1.4,0-1.4,0,0,1.62-.95,1.42-3.68-1.39-.44-3.34.42-3.34.42,0,0-1.42-.68-2.75-.58.12-.44.31-.93.66-1.49.6-.96,1.8-2.06,2.62-2.68ZM4.5,14.17c.48,0,.87.39.87.87s-.39.87-.87.87-.87-.39-.87-.87c0-.02,0-.05.01-.07,0-.17.07-.33.17-.46.16-.21.41-.34.69-.34ZM12.71,11.24c.28,0,.51.23.51.51s-.23.51-.51.51-.51-.22-.51-.51c0-.15.07-.29.18-.39.03-.02.07-.05.11-.06.07-.04.14-.06.22-.06Z" fill="currentColor" stroke-width="0"/></g></svg>