<svg id="uuid-7788d864-c740-4e62-9d27-cac2d4f777be" xmlns="http://www.w3.org/2000/svg" width="7.47mm" height="7.37mm" viewBox="0 0 21.19 20.9"><g id="uuid-18ced9f7-e672-49a1-b111-79e9ac7f6399"><path d="M17.98,5.02c-.17-.08-.97-.32-2.11-.63h-.01c-.08-.92-.21-2.62.04-2.88.37-.24.78-1.37-.39-1.51-1.28.15-2.07,2.6-2.36,3.69-3.63-.92-8.09-1.91-8.92-1.7-1.4.35-2.71,1.21-2.71,3.98s1.04,3.92,1.73,4.39c.68.48,13.04,1.61,14.43,1.16,1.4-.45,1.64-.95,1.93-3.06.3-2.11-.92-3.12-1.63-3.44ZM3.63,9.1c-.76.24-1.45-1.34-1.45-2.87s.65-2.81,1.45-2.81,1.04,1.29,1.04,2.81-.21,2.61-1.04,2.87ZM9.13,5.12h-.02l-3.18-.19c.11,1.17.07,2.99-.77,4.6-.04.09-.13.14-.22.14-.04,0-.08-.01-.12-.03-.12-.06-.17-.21-.1-.34,1.26-2.41.55-5.44.54-5.47-.03-.14.05-.27.18-.31.14-.03.27.05.31.19.01.04.07.3.13.71l3.26.2c.14.01.24.12.24.26-.01.13-.12.24-.25.24ZM11.55,6.22c.01-.14.13-.26.27-.24l2.22.15c.14.01.25.13.24.27,0,.13-.12.23-.25.23h-.02l-2.23-.15c-.13-.01-.24-.13-.23-.26ZM17,9.57h-.04l-4.12-.56c-.14-.02-.24-.15-.22-.29.02-.13.15-.22.28-.21l4.13.56c.14.02.24.15.22.29-.02.12-.13.21-.25.21Z" fill="currentColor" stroke-width="0"/><path d="M19.54,13.04c-1-.38-7.77-.98-10.36-1.16-1.78-.13-3.05,2.37-3.14,4.34-.12,2.68,1.4,4.69,3.01,4.68,2.12,0,9.09-.56,9.73-.69.65-.13,2.1-.33,2.36-3.01.27-2.67-.6-3.78-1.6-4.16ZM8.3,19.32c-.89,0-1.53-1.38-1.53-2.96s.63-2.82,1.52-2.82c.7,0,1.18,1.25,1.18,2.82s-.45,2.96-1.17,2.96ZM11.77,13.98l-1.26-.1c.17.94.54,3.64-.4,5.45-.04.09-.13.14-.22.14-.04,0-.08-.01-.12-.03-.12-.06-.17-.21-.1-.34,1.04-2.01.3-5.41.29-5.44-.02-.08,0-.16.06-.22.05-.06.13-.1.21-.09l1.58.14c.14.01.24.13.23.27-.01.13-.13.25-.27.22ZM16.84,17.64h0l-3.23-.16c-.14,0-.24-.12-.24-.26.01-.14.12-.24.26-.24l3.24.16c.13,0,.24.12.23.26,0,.14-.11.24-.25.24Z" fill="currentColor" stroke-width="0"/><path d="M6.81,12.07c-1.53-.15-2.98-.26-3.85-.26C1.28,11.8.09,14.04,0,15.89c-.12,2.51,1.31,4.4,2.82,4.39.67-.01,1.85-.06,3.14-.14-.85-.82-1.44-2.25-1.36-3.95.07-1.6.92-3.47,2.2-4.12ZM1.91,18.76c-.83,0-1.22-1.26-1.22-2.74s.61-2.67,1.24-2.67c.52,0,.71,1.2.71,2.67s-.21,2.74-.73,2.74ZM3.27,18.96c-.03.11-.13.19-.24.19-.02,0-.04,0-.06,0-.14-.04-.22-.17-.18-.31.74-2.84.18-5.18-.19-5.8-.07-.12-.03-.28.09-.35.11-.06.27-.03.34.09.42.71,1.03,3.16.24,6.19Z" fill="currentColor" stroke-width="0"/></g></svg>