<svg id="uuid-3aef05c5-f8bc-4b84-a03f-a31b4d0e59a0" xmlns="http://www.w3.org/2000/svg" width="7.93mm" height="7.16mm" viewBox="0 0 22.49 20.28"><g id="uuid-c2a1c19d-8731-4d33-89b7-7dffbb403a61"><ellipse cx="7.79" cy="5.14" rx="5.16" ry="5.14" fill="currentColor" stroke-width="0"/><path d="M14.95,16.48c0,3.42-1.74,3.8-7.57,3.8s-7.38-.38-7.38-3.8c0-2.27.91-5.26,3.07-7.02.97,1.45,2.74,2.42,4.72,2.42,1.84,0,3.46-.82,4.46-2.08,1.92,1.79,2.7,4.55,2.7,6.68Z" fill="currentColor" stroke-width="0"/><ellipse cx="17.92" cy="6.95" rx="3.29" ry="3.28" fill="currentColor" stroke-width="0"/><path d="M22.49,14.18c0,2.18-1.11,2.42-4.82,2.42-.65,0-1.22,0-1.72-.04.01-.09.01-.19.01-.29,0-1.78-.54-3.99-1.84-5.71.22-.32.49-.61.8-.86.61.92,1.74,1.54,3.01,1.54,1.16,0,2.2-.52,2.84-1.32,1.22,1.14,1.72,2.9,1.72,4.26Z" fill="currentColor" stroke-width="0"/></g></svg>