<svg id="uuid-435b7c60-e581-4357-9075-0d7029071aff" xmlns="http://www.w3.org/2000/svg" width="6.35mm" height="7.16mm" viewBox="0 0 18 20.28"><g id="uuid-a88b417d-4843-4b81-a0c0-66aade3c68f9"><ellipse cx="6.24" cy="5.14" rx="4.13" ry="5.14" fill="currentColor" stroke-width="0"/><path d="M11.97,16.48c0,3.42-1.39,3.8-6.06,3.8s-5.91-.38-5.91-3.8c0-2.27.73-5.26,2.46-7.02.78,1.45,2.19,2.42,3.78,2.42,1.47,0,2.77-.82,3.57-2.08,1.54,1.79,2.16,4.55,2.16,6.68Z" fill="currentColor" stroke-width="0"/><ellipse cx="14.35" cy="6.95" rx="2.63" ry="3.28" fill="currentColor" stroke-width="0"/><path d="M18,14.18c0,2.18-.89,2.42-3.86,2.42-.52,0-.98,0-1.38-.04.01-.09.01-.19.01-.29,0-1.78-.43-3.99-1.47-5.71.18-.32.39-.61.64-.86.49.92,1.39,1.54,2.41,1.54.93,0,1.76-.52,2.27-1.32.98,1.14,1.38,2.9,1.38,4.26Z" fill="currentColor" stroke-width="0"/></g></svg>