<svg id="uuid-094f0715-8f2c-49ac-85b6-822aaca76063" xmlns="http://www.w3.org/2000/svg" width="7.01mm" height="7.42mm" viewBox="0 0 19.86 21.02"><g id="uuid-0dd0aa65-8ab7-494f-a138-d4d40c04bbf3"><path d="M17.44,4.63c2.38,0,2.68-1.96,2.26-2.97-.53-1.25-5.55-.74-6.17-.86-.6-.11-.64-.74-3.36-.8h-.49c-2.72.06-2.76.69-3.35.8C5.71.92.68.41.15,1.66c-.41,1.01-.11,2.97,2.26,2.97.34,0,.62-.04.88-.08.3,1.48.95,4.93.9,6.61,0,.04-.01.07-.01.11-2.48.03-2.91.2-2.91.94,0,.95.85,1.25,2.4,1.33-.45,1.25-1.03,2.42-1.15,3.5-.2,1.74-.27,3.87,1.34,3.98,1.61.1,1.71-1.55,1.72-2.32.01-.46-.06-1.25-.09-1.93-.03-.47.65-.98,4.58-.98s4.61.5,4.59.97c-.03.68-.1,1.48-.09,1.94,0,.77.11,2.42,1.72,2.32,1.61-.11,1.54-2.24,1.34-3.98-.12-1.08-.71-2.25-1.15-3.49,1.55-.08,2.41-.39,2.41-1.34,0-.74-.43-.91-2.92-.94,0-.04-.01-.07-.01-.11-.05-1.66.59-5.07.89-6.57.18.02.38.03.59.04ZM4.74,4.05c.69-.45.89-.99,1.9-.99,1.33,0,.74.59,2.42.76.06.3.11.72.14,1.21-.56.41-.95,1.23-.95,2.39s.4,2.09.98,2.54c-.03.5-.06.95-.11,1.33-1.07-.01-1.99-.01-2.8-.02-.06-1.95-1.13-5.72-1.58-7.22ZM13.52,15.03c-1.21,0-.89-.79-3.48-.79s-2.24.79-3.72.79c0-1.27-.29-1.49,3.72-1.49s3.48.2,3.48,1.49ZM13.83,11.27c-.82.01-1.77.01-2.89.02-.04-.37-.08-.81-.1-1.29.61-.43,1.03-1.37,1.03-2.58s-.39-1.98-.95-2.38c.04-.52.09-.95.15-1.25,1.35-.2.9-.73,2.14-.73,1.13,0,1.24.67,2.16,1.13-.48,1.6-1.48,5.2-1.54,7.08Z" fill="currentColor" stroke-width="0"/></g></svg>