<svg id="uuid-4df9633c-2c59-4d2d-84b6-c0022c461cb8" xmlns="http://www.w3.org/2000/svg" width="7.49mm" height="7.46mm" viewBox="0 0 21.22 21.14"><g id="uuid-c1067345-8eb8-4a6e-a3af-df5915e4f8dd"><path d="M2.96,4.44c5.44,2.88,7.69,8.33,7.69,8.33,0,0,.27,3.42-.09,6.65-1.44.3-.76,1.9.27,1.69,1.41-.28,2.02-2.64,2.02-3.72s.08-1.75-.75-2.38C12.38,7.28,8.77,0,.29,0-.3,2.5-.23,8.54,2.81,11.55c3.56,3.54,6.83,2.53,6.83,2.53,0,0-.62-3.53-6.68-9.65Z" fill="currentColor" stroke-width="0"/><path d="M13.43,13.53c-1.98-5.66,2.65-10.34,6.77-9.8,2.96,7.4-1.02,10.34-5.62,10.32,1.38-1.23,3.17-3.1,3.5-5.06-.36.6-2.23,3.54-4.66,4.54Z" fill="currentColor" stroke-width="0"/></g></svg>