<svg id="uuid-ec8c3e7a-6273-4062-bb5f-51c3f1682595" xmlns="http://www.w3.org/2000/svg" width="8.49mm" height="8.49mm" viewBox="0 0 24.07 24.06"><g id="uuid-cdd5591c-b0d7-4a84-8678-3b4259b43196"><path d="M11.14,24.06H3.03l-.8-10.34c1.52.46,4.06.7,8.31.74l.6,9.6Z" fill="currentColor" stroke-width="0"/><path d="M21.98,13.72l-.8,10.34h-8.11l.6-9.61c3.95-.04,6.4-.27,7.92-.73h.39Z" fill="currentColor" stroke-width="0"/><path d="M24.07,8.44h-7.83s-.04.02-.06.03c0-.01-.02-.02-.03-.03h.09c1.77-.92,5.34-3.57,5.06-4.91-.36-1.66-2.35-3.53-5.56-3.53-2.99,0-3.59,2.69-3.68,4.63.81.26,2.57,1.85,2.28,2.16-.23.25-1.64-.73-2.31-1.47-.2-.08-.38-.12-.52-.11-.16.01-.32.05-.49.11h-.01c-.6.82-1.71,1.82-1.94,1.59-.22-.23.61-1.34,1.34-2.02-1.25-1.57-1.17-3.04-.8-3.31.41-.32,1.37.95,1.53,1.87.33-1.05-.2-3.45-2.42-3.45S3.49,1.07,2.95,2.82c-.48,1.6,4.28,5,5.17,5.62H0C0,12.1-.74,13.52,12.04,13.52s12.03-1.44,12.03-5.08ZM19.39,3.17c1.28.86-2.16,4.07-2.72,3.62-.43-.34,1.45-4.48,2.72-3.62Z" fill="currentColor" stroke-width="0"/></g></svg>