<svg id="uuid-b12fdd24-b086-4b53-ba94-3d84e182db6a" xmlns="http://www.w3.org/2000/svg" width="7.11mm" height="6.96mm" viewBox="0 0 20.16 19.74"><g id="uuid-c86e7a58-7e01-4954-8116-8ababb1c0f1d"><path d="M17.24,3.55c0,3.65-5.91,7.19-5.91,7.19,0,0-5.91-3.54-5.91-7.19s4.37-4.87,5.91-1.81c1.55-3.06,5.91-1.84,5.91,1.81Z" fill="currentColor" stroke-width="0"/><path d="M.18,16.38l4.18-3.98c.29-.28.68-.43,1.09-.43h7.63c.87,0,1.57,1.4,0,2.02-1.94.76-5.35.65-5.05,1.22.39.74,5.34.33,6.63.33s3.92-2.9,5.19-2.08c1.69,1.09-3.97,5.23-4.63,5.23H5.07c-.48,0-.94.13-1.34.39l-.94.59c-.25.16-.57.1-.76-.13l-1.9-2.36c-.19-.23-.17-.57.05-.78Z" fill="currentColor" stroke-width="0"/></g></svg>