<svg id="uuid-8a4a0091-c7f2-4587-8713-b52bc5f131e8" xmlns="http://www.w3.org/2000/svg" width="7.24mm" height="6.18mm" viewBox="0 0 20.51 17.51"><g id="uuid-fd54d0c5-781f-48a9-b208-bead1c99dea2"><circle cx="10.17" cy="3.83" r="3.83" fill="currentColor" stroke-width="0"/><circle cx="2.32" cy="8.35" r="2.32" fill="currentColor" stroke-width="0"/><circle cx="18.19" cy="8.35" r="2.32" fill="currentColor" stroke-width="0"/><path d="M10.21,8.78c-.77,0-1.63-.98-3.33-.27-2.74,1.48-.25,7.02.53,8.58.13.25.38.42.67.42h4.13c.28,0,.54-.16.67-.41.79-1.63,3.44-7.54.68-8.59-2.11-.85-2.58.27-3.36.27Z" fill="currentColor" stroke-width="0"/><path d="M5.68,15.95s-.06.02-.09.02c-2.24.08-6.39.19-4.89-4.31.52-.85,2.07-.13,3.04-.82.14-.1.33-.12.46,0,.13.12.23.26.31.44.05,1.57.6,3.3,1.17,4.68Z" fill="currentColor" stroke-width="0"/><path d="M14.43,15.97s-.03,0-.05-.01c.64-1.55,1.26-3.43,1.29-5.04.02-.03.05-.06.08-.09.12-.11.31-.09.45,0,.97.69,2.6-.03,3.12.82,1.5,4.5-2.65,4.39-4.89,4.31Z" fill="currentColor" stroke-width="0"/></g></svg>