<svg id="uuid-9d6ec637-47a8-4ed6-bf38-ae1713ca66ef" xmlns="http://www.w3.org/2000/svg" width="7.44mm" height="5.44mm" viewBox="0 0 21.1 15.42"><g id="uuid-0dbdc866-87f2-4f7d-92d5-5a464feb3a06"><path d="M12.13.61c-2.47.46-4.99,4.05-3.89,5.5,1.19,1.56,3.46-.82,5.12-1.03.88,0,1.89,2,4.35,2,1.69,0,3.39-1.96,3.39-3.59-.16-1.67-1.31-3.04-2.35-3.45-1.39-.22-1.83.47-3.27.63-1.59.18-1.66-.42-3.36-.06Z" fill="currentColor" stroke-width="0"/><path d="M16.82,10.2c-.39.52-1.41.34-1.92.02s-2.38-1.31-2.56-1.12c-.12.13,1.37,1.25,1.98,1.59.6.34,1.38,1.27,1.03,1.81-.36.53-1.68.03-2.32-.3-.65-.33-2.02-1.04-2.15-.88-.1.13,1.41,1.35,1.94,1.62s.98,1.17.47,1.68c-.67.67-3.39-.8-3.39-.8,0,0-6.07-2.84-6.86-6.96-.59.05-3.04-1.44-3.04-2.43S2.21.03,3.53.03c1.42,0,1.99,1.46,2.69,1.63.34.09,1.33.14,2.26.17-.54.64-.97,1.33-1.22,1.99-.44,1.14-.37,2.16.18,2.89.42.55,1.01.85,1.71.85,1,0,2.02-.62,3.01-1.21.29-.17.6-.36.89-.5.42.43,2.77,2.17,3.42,2.65.64.47.75,1.18.35,1.7Z" fill="currentColor" stroke-width="0"/><path d="M5.36,11.98c-.53.57-1.18,1.03-1.69.7-.7-.46-.3-1.39.21-2.14.46.53.97,1.01,1.48,1.44Z" fill="currentColor" stroke-width="0"/><path d="M5.8,12.34c.62.48,1.23.9,1.77,1.23-.59.75-1.37,1.42-2.06.96-.68-.45-.26-1.39.29-2.19Z" fill="currentColor" stroke-width="0"/><path d="M7.92,13.79c.68.4,1.23.67,1.49.79-.44.58-.99,1.07-1.48.73-.51-.35-.35-.96-.01-1.52Z" fill="currentColor" stroke-width="0"/></g></svg>