<svg id="uuid-2bcb8386-29d1-4575-857c-e6e8e63c9353" xmlns="http://www.w3.org/2000/svg" width="11.22mm" height="12.8mm" viewBox="0 0 31.81 36.27"><g id="uuid-24012875-2af2-42db-a2a0-d1c0eafa3a5d"><path d="M25.18,16.76c-.02-.1-.05-.21-.07-.32h0c-.93-3.6-4.67-10.34-8.38-10.97-.01,0-.03,0-.04,0-.17-.03-.34-.06-.5-.06h-.03c-.24,0-.48.04-.73.09,0,0,0,0-.01,0-.21.05-.42.12-.63.21-.05.02-.11.04-.16.07-.13.06-.26.13-.4.2-2.79,1.52-5.39,5.9-6.57,9.09-.04.11-.08.21-.11.32-.1.3-.2.59-.27.86-.02.05-.04.12-.05.17h0c-.02.12-.05.23-.07.33,0,0,0,0,0,0,0,0,0,0,0,0,0,.87.8,1.08,1.27.72.05-.03.09-.08.14-.12.29-.92.95-2.3,1.8-3.71,1.49-2.41,3.56-4.88,5.31-5.32.15-.03.3-.06.45-.06,2.08,0,4.83,3.49,6.46,6.43.02.03.04.07.06.1,0,.01.01.02.02.04.52.97.91,1.85,1.12,2.51,0,0,0,0,.01.01,0,0,0,.02,0,.02.04.04.08.07.12.1.47.36,1.27.15,1.27-.72,0,0,0,0,0,0,0,0,0,0,0,0Z" fill="currentColor" stroke-width="0"/><path d="M22.99,18.26c0-1.62-4.41-8.98-6.84-8.98s-6.74,7.4-6.74,8.91c-.33,2.69,1.16,3.63,2.09,3.75.02,0,.04.01.07.02,1.72.24,3.86.61,9.18.06,0,0,0,0,.01,0,.96-.06,2.61-.89,2.23-3.76Z" fill="currentColor" stroke-width="0"/><path d="M16.17,0C9.8,0,0,3.73,0,14.62s14.7,21.65,15.9,21.65,15.91-11.02,15.91-21.65C31.81,3.33,21.56,0,16.17,0ZM15.9,26.25c-6.63,0-12-5.37-12-12S9.27,2.24,15.9,2.24s12.01,5.38,12.01,12.01-5.37,12-12.01,12Z" fill="currentColor" stroke-width="0"/></g></svg>