<svg id="uuid-f0da865a-4ede-4797-bb5e-83cf829af828" xmlns="http://www.w3.org/2000/svg" width="5.8mm" height="6.66mm" viewBox="0 0 16.45 18.87"><g id="uuid-43cbb529-324f-4820-a1c6-1416396931f8"><path d="M16.45,0v.28c0,1.06-.84,1.91-1.88,1.93H1.92C.86,2.21,0,1.35,0,.28v-.28h16.45Z" fill="currentColor" stroke-width="0"/><path d="M10.08,8.98h.16c2.24,0,4.06-1.82,4.06-4.07v-1.94H2.15v1.94c0,2.25,1.82,4.07,4.06,4.07h.27v.26c0,.16.03.31.08.45-2.48.26-4.41,2.36-4.41,4.9v1.6h12.15v-1.6c0-2.51-1.88-4.58-4.31-4.88.06-.14.09-.3.09-.47v-.26ZM12.74,15.39v.34h-2.24v-.3c0-.26-.21-.47-.47-.47h-3.54c-.26,0-.47.21-.47.47v.3h-2.31v-.34c0-2.18,1.67-3.96,3.78-4.14v.39c0,.21.18.39.39.39h.78c.22,0,.39-.18.39-.39v-.38c2.08.23,3.69,1.99,3.69,4.13Z" fill="currentColor" stroke-width="0"/><rect x="7.49" y="12.72" width="1.56" height="1.51" rx=".39" ry=".39" fill="currentColor" stroke-width="0"/><path d="M16.27,18.22v.65H.12v-.65c0-.84.68-1.52,1.52-1.52h13.11c.84,0,1.52.68,1.52,1.52Z" fill="currentColor" stroke-width="0"/></g></svg>