<svg id="uuid-281afa17-3a69-4f36-8554-540776099a9c" xmlns="http://www.w3.org/2000/svg" width="7.44mm" height="7.43mm" viewBox="0 0 21.08 21.06"><g id="uuid-162a3f74-9dac-4c72-8129-c45b7a7e6ad2"><path d="M17.31,4.59l.02-.02s.05-.03.07-.04l2.63-1.09,1.05-3.29c.02-.09-.07-.17-.16-.15l-3.19,1.16-1.12,2.58s-.02.05-.04.07l-.02.02c-1.88-1.79-4.17-3.09-6.29-3.09C6.32.74,3.1,3.77,3.1,3.77c0,0-2.71-.51-3.01,0s.13,1.6,2.2,1.53c.74-.03,1.41-.29,2.15-.63l5.61,5.65-2.42,2.41s-.06.04-.09.04l-1.86.05c-.19.01-.38.09-.52.23l-2.59,2.59c-.08.07-.04.21.07.23l2.2.37s.1.06.11.11l.39,2.18c.02.11.16.15.23.07l2.55-2.61c.14-.14.22-.33.22-.53l.02-1.84s.02-.07.04-.09l2.42-2.43,5.55,5.58c-.32.71-.57,1.38-.6,2.09-.07,2.07,1.02,2.5,1.53,2.2s0-3.01,0-3.01c0,0,3.03-3.22,3.03-7.16,0-2.09-1.26-4.35-3.02-6.21ZM10.78,9.59l-5.37-5.37c1.11-.53,2.42-1.05,4.21-1.14,1.59-.07,3.46,1.07,5.04,2.63l-3.88,3.88ZM16.85,15.67l-5.3-5.3,3.88-3.9c1.52,1.56,2.63,3.41,2.56,4.97-.09,1.79-.62,3.11-1.14,4.23Z" fill="currentColor" stroke-width="0"/></g></svg>