<svg id="uuid-34ff702d-ac32-403f-9cc0-f2c5fd452bbc" xmlns="http://www.w3.org/2000/svg" width="6.67mm" height="9.35mm" viewBox="0 0 18.91 26.51"><g id="uuid-03904a61-484b-400c-b18d-4c8203f94cd6"><path d="M12.33,24.15c0,1.49-1.35,2.36-3.02,2.36s-3.02-.87-3.02-2.36,1.35-3.03,3.02-3.03,3.02,1.54,3.02,3.03Z" fill="currentColor" stroke-width="0"/><path d="M3.57,10.69c-1.05.05-4.13-1.88-3.48-5.08C.85,1.9,5.48,0,9.54,0c1.89,0,8.12.8,9.27,8.2s-7.35,7.98-7.35,7.98c0,0-.53,3.81-2.85,3.61-1.8-.15-2.32-6.81-.83-7.79,1.83-1.2,5.03.8,6.21-2.5.3-.83-.3-3.24-3.68-3.27-4.19-.04-3.74,4.31-6.73,4.46Z" fill="currentColor" stroke-width="0"/></g></svg>