<svg id="uuid-f50d29be-a37d-487b-a12b-5832cc04a710" xmlns="http://www.w3.org/2000/svg" width="9.07mm" height="10.63mm" viewBox="0 0 25.72 30.12"><g id="uuid-998ac5a1-8856-45c1-b8c8-f33ff3baf86a"><path d="M16.59,3.69c0-.71-.57-3.69-3.63-3.69-.06,0-.13,0-.19.01-.06-.01-.13-.01-.19-.01-3.06,0-3.62,2.98-3.62,3.69-5.23.12-7.47,2.05-7.47,4.87,0,2.99.35,2.71,1.2,3.29l8.34,3.55c.13-1.41.86-2.49,1.74-2.49s1.6,1.08,1.73,2.5l8.36-3.56c.85-.58,1.2-.3,1.2-3.29,0-2.82-2.24-4.75-7.47-4.87ZM14.86,3.74c-.63-.06-2.02-.14-4.17.02-.01-.04-.01-.09-.01-.13,0-1.16.94-2.09,2.1-2.09s2.09.93,2.09,2.09c0,.04,0,.08-.01.11Z" fill="currentColor" stroke-width="0"/><path d="M25.57,24.51c-.5,4.87-8.56,5.55-12.21,5.6-.19.01-.37.01-.53.01s-.32,0-.47-.01c-3.65-.05-11.71-.73-12.21-5.6-.31-3.01-.4-3.95,2.44-12.12l2,1.2c0,8.51-.56,8.95,1.01,8.94,1.61-.02,1.81-.39,1.74-.88-.07-.47-.48-.9-.55-6.74l4.7,2.83h0c.32.68.81,1.11,1.37,1.11s1.04-.42,1.35-1.09l3.96-2.37c-.06,6.77-.43,7.15,1.02,7.14,1.61-.02,1.81-.39,1.74-.88-.07-.49-.52-.94-.57-7.49-.02-.02-.04-.03-.06-.05l2.84-1.7c2.84,8.15,2.74,9.09,2.43,12.1Z" fill="currentColor" stroke-width="0"/></g></svg>