<svg id="uuid-93e0285b-498f-4ad6-bf99-8a98fd7b91bf" xmlns="http://www.w3.org/2000/svg" width="10.77mm" height="10.77mm" viewBox="0 0 30.52 30.52"><g id="uuid-5187e001-3197-4b2c-8b0b-71f880e5060d"><path d="M15.26,0C6.83,0,0,6.83,0,15.26s6.83,15.26,15.26,15.26,15.26-6.83,15.26-15.26S23.69,0,15.26,0ZM13.89,26.91c-3.15-2.11.03-4.9-3.14-7.43-4.16-3.32-7.07-1.19-7.43-1.19s-.86-3.35,2.6-3.7c1.03.03,1.74.46,2.56.43.83-.03,1.89-.63,1.85-2.33-.04-1.7-2.02-2.68-1.96-3.01.06-.34,2.61-.74,2.97-1.43.36-.69.65-4.39-.36-5.34,2.2-1.24,9.13-2.15,10.99,2.49-.2,1.23-2.15,1.84-2.97,1.9-.28,3.15-.07,6.58-.07,6.58,0,0,2.32.65,2.27,1.86-.13,2.26,4.34,5.88,4.34,5.88,0,0-7.32,8.17-11.65,5.29Z" fill="currentColor" stroke-width="0"/></g></svg>