<svg id="uuid-4d25da9e-64b1-4f29-90c0-e414fbedf32c" xmlns="http://www.w3.org/2000/svg" width="7.43mm" height="7.43mm" viewBox="0 0 21.07 21.06"><g id="uuid-2c0684d8-142c-4cc9-8b8d-a5c64748ef36"><path d="M12.03,10.96L2.34,20.65c-.27.27-.62.41-.97.41s-.7-.14-.97-.41c-.53-.53-.53-1.4,0-1.94l9.67-9.67,1.96,1.92Z" fill="currentColor" stroke-width="0"/><path d="M4.89,0c1.66,0,5.01.61,9.42,4.43,0,0,1.59-1.43,2.67-.33s-.46,2.48-.46,2.48c3.73,4.72,4.47,8.02,4.55,9.67.02.35-.45.47-.61.17-1.07-1.97-3.49-6.07-5.07-6.09-.58.12-1.19.77-1.19.77-.39.26-.91.2-1.25-.12l-2.92-2.84c-.35-.34-.4-.87-.14-1.27,0,0,.6-.43.8-1.22-.09-1.34-4.09-3.85-5.99-4.96C4.37.49,4.51,0,4.89,0Z" fill="currentColor" stroke-width="0"/></g></svg>