<svg id="uuid-5f15a35f-1891-4d99-ba30-fb3fd049d3af" xmlns="http://www.w3.org/2000/svg" width="6.4mm" height="5.22mm" viewBox="0 0 18.14 14.78"><g id="uuid-9cf36777-a8fb-43b5-9ad1-ccdffa028d25"><path d="M10.38,1.68v11.43c0,1.49-1.8,2.24-2.86,1.18l-3.81-3.8c-.11-.11-.25-.19-.4-.22l-2.91-.67c-.23-.05-.4-.26-.4-.5v-3.72c0-.24.17-.45.4-.5l3.29-.74c.15-.03.29-.11.4-.22L7.52.49c1.05-1.05,2.86-.31,2.86,1.18Z" fill="currentColor" stroke-width="0"/><path d="M17.91,9.1c.3.29.3.77,0,1.06-.14.15-.34.22-.53.22s-.38-.07-.53-.22l-1.84-1.5-1.85,1.5c-.15.15-.34.22-.53.22-.2,0-.39-.07-.53-.22-.3-.29-.3-.77,0-1.06l1.44-1.85-1.44-1.85c-.3-.29-.3-.76,0-1.06s.76-.29,1.06,0l1.85,1.47,1.84-1.47c.29-.29.77-.29,1.06,0,.3.3.3.77,0,1.06l-1.48,1.85,1.48,1.85Z" fill="currentColor" stroke-width="0"/></g></svg>