<svg id="uuid-a6741ac3-9028-4806-a1e5-127e51f4fb0d" xmlns="http://www.w3.org/2000/svg" width="6.67mm" height="7.25mm" viewBox="0 0 18.9 20.55"><g id="uuid-8bc05998-33ea-49b7-b73a-0c8027707ea0"><path d="M15.64,1.41c-.03-.15-.17-.24-.32-.21l-3.13.57v-.06c0-.94-.77-1.71-1.71-1.71s-1.72.77-1.72,1.71.77,1.72,1.72,1.72c.66,0,1.24-.38,1.52-.94-.09.87-1.06,1.64-2.34,1.81-1.94.27-2.38-1.09-2.7-1.47-.05-.07-.14-.1-.23-.08l-4.24.76c-.15.03-.25.18-.22.33l3.09,13.41c.03.14.17.23.32.21l11.76-1.82,1.22-.18c.16-.03.27-.19.23-.35L15.64,1.41ZM6.45,7.94c-.24,0-.45-.17-.49-.41-.05-.28.14-.53.41-.58l7.42-1.22c.27-.05.53.14.58.41.04.27-.14.53-.42.58l-7.42,1.22h-.08ZM7.13,10.76c-.24,0-.46-.17-.49-.42-.05-.27.14-.53.42-.57l7.46-1.14c.27-.04.52.15.56.42.05.27-.14.53-.41.57l-7.46,1.14h-.08ZM15.24,12.38l-7.43,1.14s-.05.01-.08.01c-.24,0-.45-.18-.49-.43-.04-.27.15-.53.42-.57l7.42-1.14c.28-.04.53.15.57.42.05.28-.14.53-.41.57Z" fill="currentColor" stroke-width="0"/><path d="M16.41,18.43l-13.63,2.11c-.11.02-.22-.06-.24-.17L0,6.73c-.02-.12.06-.23.17-.25l1.43-.26c.11-.02.22.06.24.17l2.24,12.1c.02.11.13.19.24.17l11.76-1.82c.11-.02.22.06.24.17l.24,1.17c.02.12-.05.23-.17.25Z" fill="currentColor" stroke-width="0"/></g></svg>