<svg id="uuid-62ce7025-8076-43b6-b46c-69fce04c3b4b" xmlns="http://www.w3.org/2000/svg" width="16.88mm" height="17.01mm" viewBox="0 0 47.86 48.23"><g id="uuid-02e06db3-c754-436c-bc12-a91c18857fc4"><path d="M12.16.29c5.08-2.61,14.97,13.25,6.42,16.99C9.17,21.4,5.81,3.56,12.16.29Z" fill="currentColor" stroke-width="0"/><path d="M1.68,14.73c4.05-3.58,16.8,8.64,9.83,14.06C3.86,34.75-3.38,19.2,1.68,14.73Z" fill="currentColor" stroke-width="0"/><path d="M33.31.21c-5.33-2.07-13.52,14.73-4.62,17.56,9.78,3.12,11.28-14.97,4.62-17.56Z" fill="currentColor" stroke-width="0"/><path d="M45.19,13.74c-4.64-2.77-14.91,11.6-7.07,15.64,8.62,4.44,12.87-12.18,7.07-15.64Z" fill="currentColor" stroke-width="0"/><path d="M23.69,22.45c-8.36,0-13,13.13-14.36,17.7-.47,1.58-.45,3.3.19,4.81.7,1.63,2.16,3.27,5.25,3.27,6.18,0,5.23-3.15,9.21-3.15s4.99,3.15,10.22,3.15c2.63,0,3.82-1.64,4.35-3.27s.43-3.24-.08-4.8c-1.49-4.62-6.45-17.71-14.79-17.71Z" fill="currentColor" stroke-width="0"/></g></svg>