<svg id="uuid-1c3b4c67-93fb-4ae3-b4ae-4195f231c785" xmlns="http://www.w3.org/2000/svg" width="8.5mm" height="6.91mm" viewBox="0 0 24.09 19.6"><g id="uuid-697c3b28-b762-46a1-959b-cce475cf907f"><path d="M22.79,3.08h-4.6c-.33,0-.61-.24-.66-.57l-.17-1.11c-.13-.81-.82-1.4-1.64-1.4h-7.3c-.88,0-1.6.67-1.65,1.55l-.06.91c-.02.35-.32.63-.67.63H1.3C.55,3.09-.05,3.72,0,4.47l.77,12.61c.08,1.42,1.26,2.52,2.67,2.52h17.43c1.44,0,2.62-1.13,2.68-2.56l.54-12.6c.03-.74-.56-1.36-1.3-1.36ZM3.08,7.69c-.84,0-1.52-.68-1.52-1.52s.68-1.53,1.52-1.53,1.52.69,1.52,1.53-.68,1.52-1.52,1.52ZM12.13,17.43c-3.71,0-6.72-3.01-6.72-6.72s3.01-6.71,6.72-6.71,6.71,3.01,6.71,6.71-3.01,6.72-6.71,6.72Z" fill="currentColor" stroke-width="0"/><circle cx="12.14" cy="10.71" r="4.45" fill="currentColor" stroke-width="0"/></g></svg>