<svg id="uuid-2cd89c7d-5a5b-461e-a0d3-7d29f0fdfe4e" xmlns="http://www.w3.org/2000/svg" width="10.69mm" height="10.44mm" viewBox="0 0 30.3 29.58"><g id="uuid-5fc6dec4-e21a-4197-9e1a-5a047fb39cc5"><path d="M4.99,11.68l13.3,13.81c.39.4,1.02.43,1.44.06l.86-.76c1.62-1.43,1.99-3.81.88-5.66l-.95-1.59,5.52-6.36,2.81-.08c1.28-.04,1.91-1.58,1.02-2.5L22.05.48c-.98-1.02-2.71-.3-2.68,1.11l.04,1.98-6.85,5.59-1.26-.74c-1.58-.93-3.57-.81-5.03.31l-1.22,1.13c-.53.49-.55,1.31-.05,1.83Z" fill="currentColor" stroke-width="0"/><path d="M8.07,18.95l-6.37,6.36c-.44.44-.77.96-.98,1.54l-.68,1.91c-.16.46.24.91.71.81l2.24-.49c.73-.16,1.41-.52,1.95-1.03l6.19-5.82c.2-.19.21-.51.02-.71l-2.36-2.55c-.19-.21-.53-.22-.73-.01Z" fill="currentColor" stroke-width="0"/></g></svg>