<svg id="uuid-dfd6f818-7eb8-472a-8140-0c99c080268c" xmlns="http://www.w3.org/2000/svg" width="11.88mm" height="12.09mm" viewBox="0 0 33.69 34.28"><g id="uuid-7a879741-ee35-42d9-9389-6d11cb2baa39"><path d="M33.64,20.59c-.18-1.37-1.14-2.58-2.51-2.76-5.26-.7-12.5,10.83-14.01,13.34-.13.21-.44.21-.56,0-1.51-2.51-8.74-14.04-14.01-13.34-1.37.18-2.33,1.39-2.51,2.76-.46,3.49,3.07,5.7,5.7,5.8.35.01.69.05,1.01.18,4.68,1.98,8.82,6.44,9.85,7.6.13.15.36.15.49,0,1.03-1.16,5.17-5.63,9.85-7.6.32-.13.67-.17,1.01-.18,2.63-.09,6.15-2.31,5.7-5.8Z" fill="currentColor" stroke-width="0"/><path d="M22.97,16.83c-.06.08-.18.06-.22-.03-1.03-2.28-3.32-3.87-5.98-3.87s-4.87,1.53-5.93,3.75c-.04.09-.16.11-.22.03C6.75,12.08,3.32,5.84,7.74,1.47,8.91.32,10.58-.26,12.17.12c2.63.64,3.89,2.81,4.39,3.99.11.24.45.24.56,0,.5-1.18,1.77-3.35,4.39-3.99,1.59-.38,3.27.2,4.43,1.35,4.47,4.41.92,10.73-2.97,15.37Z" fill="currentColor" stroke-width="0"/><circle cx="16.76" cy="19.48" r="3.74" fill="currentColor" stroke-width="0"/></g></svg>