<svg id="uuid-3a6faaad-339e-485b-9439-1a83370a12af" xmlns="http://www.w3.org/2000/svg" width="5.93mm" height="7.28mm" viewBox="0 0 16.82 20.64"><g id="uuid-3da27514-19c7-4e7f-ae63-7ea753e349ff"><path d="M16.13,0H.79c-.43,0-.79.35-.79.79l.24,3.44c.07,1.05.94,1.86,1.99,1.86h13.38c.54,0,.99-.43,1.01-.97l.2-4.43c0-.38-.31-.69-.69-.69ZM9.87,3.72c0,.39-.32.71-.72.71H2.5c-.39,0-.71-.32-.71-.71v-.51c0-.39.32-.71.71-.71h6.65c.4,0,.72.32.72.71v.51ZM14.4,4.81c-.75,0-1.36-.6-1.36-1.35s.61-1.35,1.36-1.35,1.35.61,1.35,1.35-.61,1.35-1.35,1.35Z" fill="currentColor" stroke-width="0"/><path d="M16.13,7.28H.79c-.43,0-.79.35-.79.79l.24,3.44c.07,1.05.94,1.86,1.99,1.86h13.38c.54,0,.99-.43,1.01-.97l.2-4.43c0-.38-.31-.69-.69-.69ZM9.87,11c0,.39-.32.71-.72.71H2.5c-.39,0-.71-.32-.71-.71v-.51c0-.39.32-.71.71-.71h6.65c.4,0,.72.32.72.71v.51ZM14.4,12.09c-.75,0-1.36-.6-1.36-1.35s.61-1.35,1.36-1.35,1.35.61,1.35,1.35-.61,1.35-1.35,1.35Z" fill="currentColor" stroke-width="0"/><path d="M16.13,14.55H.79c-.43,0-.79.35-.79.79l.24,3.44c.07,1.05.94,1.86,1.99,1.86h13.38c.54,0,.99-.43,1.01-.97l.2-4.43c0-.38-.31-.69-.69-.69ZM9.87,18.27c0,.39-.32.71-.72.71H2.5c-.39,0-.71-.32-.71-.71v-.51c0-.39.32-.71.71-.71h6.65c.4,0,.72.32.72.71v.51ZM14.4,19.36c-.75,0-1.36-.6-1.36-1.35s.61-1.35,1.36-1.35,1.35.61,1.35,1.35-.61,1.35-1.35,1.35Z" fill="currentColor" stroke-width="0"/></g></svg>