<svg id="uuid-6f624411-4886-4d60-b319-e8197c0c6072" xmlns="http://www.w3.org/2000/svg" width="8.43mm" height="8.5mm" viewBox="0 0 23.89 24.09"><g id="uuid-c30cf55d-6c70-4483-b5ea-9a0ab0f15739"><path d="M23.89,8.56c0,1.59-.94,1.96-1.79,1.96-1.93,0-2.56-.73-2.8-1.22-.22-.43-.17-4.16-.86-6.3-.81.15-1.82.27-3.05.34.07,1.43.27,3.3.27,4.7,0,1.69-1.34,3.23-3.73,3.23s-3.7-1.42-3.7-3.29c0-1.53.22-3.23.32-4.63-1.26-.08-2.28-.19-3.11-.35-.69,2.14-.64,5.87-.86,6.3-.24.49-.86,1.22-2.8,1.22-.85,0-1.78-.37-1.78-1.96S2.09.63,2.09.63C2.18.26,2.51,0,2.89.02c1.77.07,4.78,1.57,9.04,1.57S18.87.13,20.82,0c.44-.03.84.24.96.63.02.03.02.05.03.07h0c.25.75,2.08,6.38,2.08,7.86Z" fill="currentColor" stroke-width="0"/><path d="M21.81.7s-.01-.04-.03-.07h.01s0,.02.02.07Z" fill="currentColor" stroke-width="0"/><path d="M22.25,12.23c-2.19,0-2.9-.83-3.17-1.39-.03-.06-.05-.17-.08-.32h-3.23c-.52,1.28-1.85,2.26-3.84,2.26s-3.32-.91-3.82-2.26h-3.2c-.02.18-.05.32-.08.38-.28.56-.99,1.4-3.21,1.4-.03,0-.07,0-.1-.01l.95,10.43c.07.78.72,1.37,1.5,1.37h16.04c.75,0,1.38-.57,1.44-1.32l.93-10.55s-.09.01-.13.01ZM15.61,17.21l-1.4,1.48.3,1.89c.03.2-.05.39-.2.51-.09.09-.22.15-.36.15-.06,0-.12,0-.17-.03l-1.84-.6-1.87.6c-.18.07-.4.03-.54-.12-.15-.13-.22-.33-.18-.52l.36-1.91-1.45-1.45c-.16-.15-.21-.36-.15-.56.06-.2.23-.35.44-.38l2.03-.38.85-1.7c.08-.2.31-.3.51-.32.21,0,.41.14.51.32l.73,1.67,2.13.41c.2.03.36.18.44.36.06.22,0,.43-.14.58Z" fill="currentColor" stroke-width="0"/></g></svg>