<svg id="uuid-3bf5df3f-63c2-4201-96f9-83e43caa296f" xmlns="http://www.w3.org/2000/svg" width="8.43mm" height="8.5mm" viewBox="0 0 23.89 24.09"><g id="uuid-693e044e-ae46-4d41-a1c2-cc07185739b7"><path d="M23.89,8.56c0,1.59-.94,1.96-1.79,1.96-1.93,0-2.56-.73-2.8-1.22-.22-.43-.17-4.16-.86-6.3-.81.15-1.82.27-3.05.34.07,1.43.27,3.3.27,4.7,0,1.69-1.34,3.23-3.73,3.23s-3.7-1.42-3.7-3.29c0-1.53.22-3.23.32-4.63-1.26-.08-2.28-.19-3.11-.35-.69,2.14-.64,5.87-.86,6.3-.24.49-.86,1.22-2.8,1.22-.85,0-1.78-.37-1.78-1.96S2.09.63,2.09.63C2.18.26,2.51,0,2.89.02c1.77.07,4.78,1.57,9.04,1.57S18.87.13,20.82,0c.44-.03.84.24.96.63.02.03.02.05.03.07h0c.25.75,2.08,6.38,2.08,7.86Z" fill="currentColor" stroke-width="0"/><path d="M21.81.7s-.01-.04-.03-.07h.01s0,.02.02.07Z" fill="currentColor" stroke-width="0"/><path d="M22.25,12.23c-2.19,0-2.9-.83-3.17-1.39-.03-.06-.05-.17-.08-.32h-3.23c-.52,1.28-1.85,2.26-3.84,2.26s-3.32-.91-3.82-2.26h-3.2c-.02.18-.05.32-.08.38-.28.56-.99,1.4-3.21,1.4-.03,0-.07,0-.1-.01l.95,10.43c.07.78.72,1.37,1.5,1.37h16.04c.75,0,1.38-.57,1.44-1.32l.93-10.55s-.09.01-.13.01Z" fill="currentColor" stroke-width="0"/></g></svg>