<svg id="uuid-f3f227b6-3416-4708-8e4e-f4f66446d76c" xmlns="http://www.w3.org/2000/svg" width="7.17mm" height="8.37mm" viewBox="0 0 20.31 23.73"><g id="uuid-fcdd222a-411e-4014-8d3e-330b5fad216d"><path d="M6.84,4.17c1.32,0,2.08.57,2.25,2.78s-1.64,4.55-1.64,4.55h5.79s1.72.08,1.72,1.75-1.24,1.43-1.65,2.12c.29.63,1.05.9.97,2.14s-.69,1.31-1.59,2.05c.36.44,1.7.11,1.56,1.7s-2.37,2.04-3.51,2.24c-3.13.55-8.32-.04-9.1-.68s-1.65-1.96-1.65-4.79.44-3.86.96-4.77,2.14-2.49,3.25-3.7c1.92-2.08,1.92-5.41,2.62-5.41Z" fill="currentColor" stroke-width="0"/><path d="M18.67,11.21c.3.63,1.04.9.97,2.15-.07,1.24-.69,1.3-1.59,2.05.36.44,1.7.11,1.56,1.7s-2.37,2.03-3.5,2.23c-.29.06-.59.09-.9.11-.01-.03-.03-.06-.06-.09.29-.4.51-.96.57-1.76.04-.84-.16-1.44-.41-1.89.54-.41,1.09-1.13,1.09-2.46,0-2.23-1.85-3.12-3.09-3.18h-3.4c.4-.94.7-2.09.62-3.23-.03-.44-.1-1.29-.44-2.09,1.4-2.05,1.47-4.76,2.12-4.76,1.32,0,2.09.57,2.26,2.79.16,2.2-1.64,4.55-1.64,4.55h5.79s1.72.09,1.72,1.75-1.24,1.43-1.64,2.13Z" fill="currentColor" stroke-width="0"/></g></svg>