<svg id="uuid-814b862e-8cb4-4aed-8899-7fb6e5c95e6e" xmlns="http://www.w3.org/2000/svg" width="5.32mm" height="6.96mm" viewBox="0 0 15.09 19.72"><g id="uuid-db0f93b2-be96-47ca-ae1d-d44b55e8e3e3"><path d="M6.89,0c1.33,0,2.1.58,2.27,2.81s-1.65,4.59-1.65,4.59h5.84s1.74.08,1.74,1.77-1.25,1.44-1.66,2.14c.3.64,1.05.91.98,2.16s-.7,1.32-1.61,2.07c.37.44,1.72.11,1.58,1.71s-2.39,2.06-3.53,2.26c-3.16.55-8.38-.04-9.18-.68s-1.66-1.98-1.66-4.83.44-3.89.97-4.81,2.16-2.51,3.28-3.73C6.18,3.36,6.18,0,6.89,0Z" fill="currentColor" stroke-width="0"/></g></svg>