<svg id="uuid-18ecb7f6-7dbb-4060-a8a9-e4381c024234" xmlns="http://www.w3.org/2000/svg" width="7.48mm" height="8.55mm" viewBox="0 0 21.21 24.25"><g id="uuid-076b3d0a-0ef8-4ce2-b885-228a3728c866"><path d="M11.37,3.08v-.78c1.28-.04,2.22-.35,2.22-2.3h-5.98c0,1.95.95,2.26,2.23,2.3v.78C4.34,3.47,0,8.05,0,13.65s4.75,10.6,10.6,10.6,10.61-4.74,10.61-10.6S16.87,3.47,11.37,3.08ZM10.6,21.44c-4.55,0-8.24-3.69-8.24-8.24S6.05,4.97,10.6,4.97s8.23,3.69,8.23,8.23-3.69,8.24-8.23,8.24Z" fill="currentColor" stroke-width="0"/><path d="M12.8,13.59c0,1.19-.95,2.15-2.14,2.15s-2.15-.97-2.15-2.15v-.02c-.14-1.57-2.49-4.2-2.26-4.48.24-.27,2.63,2.25,4.47,2.34h-.01c1.17.03,2.1.98,2.1,2.15Z" fill="currentColor" stroke-width="0"/></g></svg>