<svg id="uuid-d9f99b10-2109-4cb8-a41c-50d34c05a1b3" xmlns="http://www.w3.org/2000/svg" width="7.4mm" height="8.51mm" viewBox="0 0 20.97 24.12"><g id="uuid-a48fd828-4e8c-40d6-8615-a382f4f27f5d"><path d="M20.93,6.59l-.7-2.36c-.22-.72-.88-1.21-1.63-1.21h-4.64c-.17-1.83-1.65-3.02-3.47-3.02s-3.31,1.19-3.48,3.02H2.42c-.74,0-1.39.47-1.61,1.18L.05,6.57c-.21.66.28,1.33.97,1.33h18.93c.69,0,1.18-.66.98-1.31ZM10.49,1.27c1.09,0,1.99.64,2.06,1.75h-4.13c.07-1.11.97-1.75,2.07-1.75Z" fill="currentColor" stroke-width="0"/><path d="M1.33,9.01l1.17,12.54c.25,1.48,1.53,2.57,3.03,2.57h10.1c1.5,0,2.78-1.09,3.03-2.56l.98-12.55H1.33ZM7.13,20.95h-1.17c-.23,0-.42-.19-.42-.42l-.64-8.17c0-.23.19-.41.41-.41h1.18c.22,0,.41.18.41.41l.64,8.17c0,.23-.18.42-.41.42ZM11.49,20.53c0,.23-.19.42-.42.42h-1.16c-.24,0-.42-.19-.42-.42v-8.16c0-.23.18-.42.42-.42h1.16c.23,0,.42.19.42.42v8.16ZM15.37,20.53c0,.23-.19.42-.41.42h-1.18c-.22,0-.41-.19-.41-.42l.64-8.17c0-.23.19-.41.42-.41h1.17c.23,0,.41.18.41.41l-.64,8.17Z" fill="currentColor" stroke-width="0"/></g></svg>