<svg id="uuid-a4e66fd5-87e5-49e1-a036-376a81b3cc83" xmlns="http://www.w3.org/2000/svg" width="7.2mm" height="6.78mm" viewBox="0 0 20.41 19.21"><g id="uuid-a3457e82-c976-46a2-9363-57c22329a850"><path d="M15.92,14.73c-1.26,0-1.28-2.58-1.28-3.11-1.12.09-3.21-.14-3.21-1.12,0-1.16,2.14-1.15,3.16-1.18.01-1.71-.03-3.54,1.42-3.54s1.53,1.5,1.48,3.53c.55-.05,2.92-.16,2.92,1.3,0,1.16-2.82.97-2.82.97h-.07c.05.59-.3,3.17-1.6,3.17Z" fill="currentColor" stroke-width="0"/><circle cx="6.96" cy="4.4" r="4.4" fill="currentColor" stroke-width="0"/><path d="M13.84,15.25c0,4.67-4.63,3.79-9.55,3.95C1.99,19.28-.02,17.48,0,15.18c.03-2.49,1.37-4.66,3.36-5.85.11-.06.24-.06.35.01.93.62,2.04.97,3.25.97s2.42-.39,3.38-1.06c.13.08.26.16.39.24-.44.21-.74.53-.79,1.03-.12,1.1,1.59,1.77,3.17,2.06.13.02.24.11.28.23.3.76.45,1.58.45,2.45Z" fill="currentColor" stroke-width="0"/></g></svg>