<svg id="uuid-d5f3d470-a9f3-44d2-a9ff-13eac9ac0825" xmlns="http://www.w3.org/2000/svg" width="115.1" height="118" viewBox="0 0 115.1 118"><g id="uuid-134faebc-248c-422e-b3f4-78fb76435490"><path d="M69.25,102.75s-3.95-4.39-9.73-6.21c0-1.07-.02-9.43-.02-9.43,0,0,20.47-15.39,20.47-24.66,0,0,1.09,1.77,4.19,1.17,5.92-2.06,10.32-12.21,10.32-18.58,0-2.44.35-12.12-13.46-9.75,0-1.99,4.89-4.27,1.05-4.27h-48.95c-3.84,0,1.05,2.28,1.05,4.27-13.81-2.36-13.46,7.31-13.46,9.75,0,6.37,4.39,16.52,10.32,18.58,3.1.6,4.19-1.17,4.19-1.17,0,9.27,20.47,24.66,20.47,24.66,0,0-.02,8.35-.02,9.43-5.78,1.81-9.73,6.21-9.73,6.21-3.14.97-4.84,2.47-4.84,3.95h32.99c0-1.48-1.69-2.98-4.84-3.95ZM81.39,39.33c10.48-3.06,9.35,3.12,9.35,6.07,0,9.34-6.1,14.2-9.35,14.2v-20.27ZM33.79,59.6c-3.25,0-9.35-4.85-9.35-14.2,0-2.96-1.13-9.13,9.35-6.07v20.27ZM57.54,66.45c-2.16-7.81-3.9-9.55-11.71-11.71,7.81-2.16,9.55-3.9,11.71-11.71,2.16,7.81,3.9,9.55,11.71,11.71-7.8,2.16-9.55,3.9-11.71,11.71Z" fill="currentColor" stroke-width="0"/><path d="M87.03,31.03c.13-17.65-9.94-20.44-12.22-31.03-1.13,4.67-7.33,23.13,12.22,31.03Z" fill="currentColor" stroke-width="0"/><path d="M96.57,39.41c.05-.12.07-.22.12-.34.23.54.45,1.07.67,1.6-3.22,11.09,1.56,12.71,3.92,15.3.17,1.88.2,3.67.11,5.38-1.83-1.93-4.6-3.69-6.91-6.96-4.55,8.43,2.18,12.12,5.18,15.82-.8,2.26-1.83,4.33-3.04,6.24-.29-4-2.32-8.17-4.75-11.6-1.51,8.21-6.73,8.21-4,21.3-1.76,1.45-3.56,2.78-5.34,3.98,4.02-5.34,3.39-12.21.8-18.36-3.25,7.99-10.3,10.73-8.91,23.45-1.22.75-2.34,1.45-3.31,2.12,11.19,4.58,42.56-22.09,31.48-49.12-.45-1.8-1.23-3.21-2.3-4.64-.98-1.63-2.15-3.25-3.47-4.86,5.13-13.83-4.51-16.9-8.61-24.79-1.13,4.67-.09,18.94,8.37,25.47Z" fill="currentColor" stroke-width="0"/><path d="M102.78,27.4c-6.62,10.32,3.37,17.41,4.5,25.87,6.45-18.21-1.05-17.25-4.5-25.87Z" fill="currentColor" stroke-width="0"/><path d="M112.68,49.48c-7.98,6.93-4.11,16.2-6.29,24.74,11.44-9.27,9.35-15.39,6.29-24.74Z" fill="currentColor" stroke-width="0"/><path d="M94.47,89.94c9.89-2.5,17.17-5.88,19.26-15.72-6.85,3.47-13.62,5.56-19.26,15.72Z" fill="currentColor" stroke-width="0"/><path d="M99.79,92.6c-6.21,0-13.71.4-20.87,7.86,9.51-.6,18.78,1.97,20.87-7.86Z" fill="currentColor" stroke-width="0"/><path d="M77.39,111.61c-3.62,3.62,5.34,3.77,8.16,6.39,1.57-1.47-4.06-9.86-8.16-6.39Z" fill="currentColor" stroke-width="0"/><path d="M40.29,0c-2.28,10.58-12.35,13.38-12.22,31.03,19.56-7.9,13.35-26.35,12.22-31.03Z" fill="currentColor" stroke-width="0"/><path d="M12.32,27.4c-3.46,8.62-10.95,7.66-4.5,25.87,1.13-8.46,11.12-15.55,4.5-25.87Z" fill="currentColor" stroke-width="0"/><path d="M8.7,74.22c-2.18-8.54,1.69-17.81-6.29-24.74-3.06,9.35-5.16,15.47,6.29,24.74Z" fill="currentColor" stroke-width="0"/><path d="M1.37,74.22c2.1,9.83,9.37,13.22,19.26,15.72-5.64-10.15-12.41-12.25-19.26-15.72Z" fill="currentColor" stroke-width="0"/><path d="M36.18,100.46c-7.16-7.45-14.67-7.86-20.87-7.86,2.1,9.83,11.36,7.25,20.87,7.86Z" fill="currentColor" stroke-width="0"/><path d="M29.54,118c2.82-2.62,11.78-2.77,8.16-6.39-4.1-3.47-9.73,4.91-8.16,6.39Z" fill="currentColor" stroke-width="0"/><path d="M14.83,43.59c-1.07,1.44-1.86,2.85-2.3,4.64-11.08,27.02,20.29,53.7,31.48,49.12-.97-.67-2.1-1.37-3.31-2.12,1.39-12.72-5.66-15.46-8.91-23.45-2.59,6.15-3.21,13.01.8,18.36-1.78-1.21-3.59-2.53-5.34-3.98,2.73-13.09-2.49-13.1-4-21.3-2.43,3.43-4.46,7.6-4.75,11.6-1.21-1.91-2.24-3.99-3.04-6.24,3.01-3.7,9.73-7.39,5.18-15.82-2.31,3.27-5.08,5.03-6.91,6.96-.09-1.71-.06-3.5.11-5.38,2.36-2.59,7.14-4.21,3.92-15.3.21-.53.43-1.06.67-1.6.04.12.07.22.12.34,8.46-6.53,9.5-20.79,8.37-25.47-4.09,7.89-13.74,10.97-8.61,24.79-1.33,1.61-2.5,3.23-3.47,4.86Z" fill="currentColor" stroke-width="0"/></g></svg>