<svg id="uuid-f5b86384-713f-449d-9a2f-faf763bddd62" xmlns="http://www.w3.org/2000/svg" width="118" height="87.74" viewBox="0 0 118 87.74"><g id="uuid-49ff131d-c035-4040-b75b-67b7085774d2"><path d="M114.61,4.79h-.05c-.17-2.64-.95-4.79-4.27-4.79h-5.47c.03,1.29.07,3.05.11,5.05,0,.45.02.91.03,1.38,0,.07,0,.14,0,.2.01.56.02,1.13.03,1.71,0,0,0,.01,0,.02,0,.57.02,1.14.03,1.72,0,.11,0,.21,0,.32,0,.58.02,1.16.03,1.74,0,.05,0,.1,0,.14,0,.57.02,1.15.02,1.72,0,.06,0,.11,0,.17,0,.58.01,1.16.02,1.74,0,.1,0,.19,0,.29,0,.59,0,1.17.01,1.74,0,.01,0,.02,0,.03,0,.58,0,1.15,0,1.7,0,.04,0,.08,0,.11,0,.53,0,1.04,0,1.54,0,.09,0,.17,0,.26,0,.49,0,.97-.01,1.42,0,.03,0,.05,0,.08,0,.43-.01.84-.02,1.23,0,.06,0,.12,0,.17,0,.38-.02.73-.03,1.06,0,.07,0,.13,0,.2-.01.32-.03.63-.04.89,0,.01,0,.02,0,.04-.02.25-.03.46-.05.64,0,.03,0,.07-.01.1-.02.17-.04.31-.07.41,0,.02,0,.03-.01.05-.03.09-.05.15-.08.15-.8,0-6.33-7.5-7.44-7.5s-6.91,7.5-7.44,7.5c-.02,0-.04-.06-.06-.15,0-.02,0-.03,0-.05-.02-.1-.03-.23-.04-.41,0-.03,0-.07,0-.11-.01-.18-.02-.39-.04-.64,0-.01,0-.02,0-.04-.01-.27-.02-.57-.03-.9,0-.05,0-.11,0-.16,0-.34-.02-.7-.02-1.09,0-.05,0-.1,0-.14,0-.4-.01-.82-.01-1.26,0-.02,0-.03,0-.05,0-.46,0-.94,0-1.43,0-.08,0-.16,0-.24,0-.5,0-1.02,0-1.55,0-.03,0-.06,0-.1,0-.55,0-1.11,0-1.69,0-.02,0-.05,0-.07,0-.56,0-1.13,0-1.71,0-.1,0-.21,0-.31,0-.58,0-1.17.01-1.77,0,0,0-.01,0-.02,0-.59,0-1.18.02-1.77,0-.09,0-.18,0-.27,0-.56.01-1.12.02-1.68,0-.11,0-.23,0-.34,0-.54.01-1.08.02-1.61,0-.16,0-.31,0-.46,0-.39,0-.77.01-1.14,0-.17,0-.34,0-.5,0-.44.01-.87.02-1.28.03-2.01.05-3.77.07-5.06h-18.68c-4.93,0-7.69,3.15-8.79,4.79h-4.8c-1.1-1.63-3.86-4.79-8.79-4.79H11.59c-3.34,0-4.11,2.17-4.27,4.83-1.67.21-2.96,1.62-2.96,3.35v4.96h-1.57c-1.54,0-2.79,1.25-2.79,2.79v5.65c0,1.54,1.25,2.79,2.79,2.79h1.57v1.88c-1.43.12-2.55,1.3-2.55,2.76v5.65c0,1.46,1.12,2.64,2.55,2.76v1.91c-1.43.12-2.55,1.3-2.55,2.76v5.65c0,1.46,1.12,2.64,2.55,2.76v33.86c0,1.87,1.52,3.39,3.39,3.39h106.86c1.87,0,3.39-1.52,3.39-3.39V8.18c0-1.87-1.52-3.39-3.39-3.39ZM41.17,13.91c0-.43.35-.78.78-.78h5.71c.43,0,.78.35.78.78v2.02c0,.43-.35.78-.78.78h-5.71c-.43,0-.78-.35-.78-.78v-2.02ZM16.72,14.42c0-.71.58-1.29,1.29-1.29h17.44c.71,0,1.29.58,1.29,1.29v1c0,.71-.58,1.29-1.29,1.29h-17.44c-.71,0-1.29-.58-1.29-1.29v-1ZM16.72,25.72c0-.71.58-1.29,1.29-1.29h17.44c.71,0,1.29.58,1.29,1.29v1c0,.71-.58,1.29-1.29,1.29h-17.44c-.71,0-1.29-.58-1.29-1.29v-1ZM57.59,86.52c-.18.22-.44.34-.71.34-.2,0-.4-.07-.56-.2-1.01-.8-3.98-2.88-5.64-2.88H10.96c-2.93,0-4.3-1.52-4.36-1.58-.33-.37-.29-.95.08-1.28.38-.33.95-.29,1.28.08.03.03.94.97,3,.97h39.72c2.59,0,6.35,2.94,6.77,3.28.39.31.45.88.14,1.27ZM60.89,77.74c0,.5-.4.9-.9.9s-.9-.4-.9-.9V9.15c0-.5.4-.9.9-.9s.9.4.9.9v68.6ZM115.34,82.2c-.06.06-1.43,1.58-4.36,1.58h-42.08c-1.67,0-4.64,2.08-5.64,2.88-.17.13-.37.2-.56.2-.26,0-.53-.12-.71-.34-.31-.39-.25-.96.14-1.27.42-.34,4.18-3.28,6.77-3.28h42.08c2.06,0,2.97-.94,3.01-.98.34-.36.91-.39,1.27-.06.37.33.4.89.07,1.26Z" fill="currentColor" stroke-width="0"/></g></svg>