<svg id="uuid-a5d4adb0-5363-4d2c-821a-9aa9ce7b7caa" xmlns="http://www.w3.org/2000/svg" width="118" height="108.8" viewBox="0 0 118 108.8"><g id="uuid-9b4f7822-88ef-4a2d-8f33-f225294b8f44"><path d="M52.51,23.24C25.54,23.24,0,45.61,0,72.02c0,24.54,24.95,36.79,53.44,36.79s50.64-9.23,50.64-37.72-23.09-47.85-51.57-47.85ZM31.27,65.72c-.33,4.68-4.15,10.81-9.34,10.44-3.69-.26-5.05-4.95-4.43-13.71.52-7.36,4.69-13.06,8.53-12.79,5.63.4,5.65,10.3,5.24,16.06ZM63.07,70.07c-.24,4.84-4.04,11.25-9.41,10.98-3.82-.19-5.32-4.99-4.88-14.05.38-7.61,4.54-13.59,8.52-13.39,5.82.29,6.06,10.5,5.77,16.46Z" fill="currentColor" stroke-width="0"/><path d="M84.1,0c-17.29,0-28.64,7.85-33.16,20.11.53-.02,1.07-.04,1.6-.04,4.91,0,9.66.54,14.19,1.57.02-.21.02-.4.04-.62.44-4.54,3.1-8,5.47-7.78,3.47.33,3.33,6.45,2.99,10.01-.03.3-.09.61-.17.93,14.67,5.68,25.97,16.95,30.59,31.9,7.6-4.41,12.34-11.82,12.34-22.77C118,17.15,101.35,0,84.1,0ZM95.31,31.32c-3.19.45-5.8-3.17-6.2-6.05-.5-3.54-.9-9.65,2.55-10.13,2.36-.33,5.17,3.01,5.8,7.53.75,5.38.11,8.33-2.15,8.64Z" fill="currentColor" stroke-width="0"/></g></svg>