<svg id="uuid-88fa0ce6-a78f-4029-adcd-846de932324b" xmlns="http://www.w3.org/2000/svg" width="87.81" height="118" viewBox="0 0 87.81 118"><g id="uuid-334d1481-63fb-4179-998f-a75835233535"><path d="M54.54,80.72c0-2.11-1.71-3.81-3.81-3.81s-3.81,1.71-3.81,3.81,1.71,3.81,3.81,3.81,3.81-1.71,3.81-3.81Z" fill="currentColor" stroke-width="0"/><path d="M80.38,55.45s2.67-28.89-9.44-33.09c-.76-1.24,7.72-6.1,7.72-6.1,0,0-5.15-.38-13.06,0-19.64-21.07-42.14-1.05-42.14-1.05,0,0-6.01-6.67,11.63-14.59C32.13-.42,2.38-2.71,18.78,18.93-13.83,36.57,5.62,67.37,7.05,67.75c1.43.38,6.48-1.72,7.44-2.96s-5.91-15.64-4.39-16.69c1.53-1.05,18.88,1.53,19.16,0,.29-1.53-8.3-10.96-8.3-10.96,0,0,13.06,11.06,12.87,12.59-.19,1.53-19.64-.48-19.64,1.91s13.44,8.58,13.44,8.58c0,0,1.53-.76,2.77-1.53,2.77.1,3.24,11.54,4.67,12.78,4.1-.38,11.99-13.42,13.44-18.02,2.38,4.29-10.68,21.17-4.48,25.08.95.57,3.53-6.87,4.2-6.77.67.1,2,4.48,4.2,2.29,8.49-4.96,12.49-17.64,12.49-17.64,0,0,5.6,1.25,8.1,1.14,1.59-.07-4-14.11-4-14.11,0,0,9.44,11.7,9.25,16.78-.86,2.19-12.78-1.81-12.4.86.38,2.67-10.02,14.77-10.02,14.77,0,0,2.2,5.92.96,7.16-1.24,1.24-4.58,2.29-4.77,6.77.1,5.24,21.04,17.88,24.12,20.5.38-8.68,2.29-18.4-6.2-29.08-.1-4.67,6.87-16.3,6.87-16.3,0,0,6.77.38,10.96.19-2.96-4.58-7.44-9.63-7.44-9.63Z" fill="currentColor" stroke-width="0"/><path d="M38.71,74.04c-4.29-.86-6.96.48-6.96.48,0,0-1.24-7.63-.76-10.58-5.91-.67-16.4-9.4-17.45-8.8-1.05.6,6.77,12.71,6.77,12.71,0,0-14.21,2.29-15.26,6.1,1.43,9.44,14.21,20.69,16.88,20.98,2.67.29,6.96-4.58,8.68-4.86,1.25,1.24,1.72,4.96,6.77,11.63-1.29,4.05-8.1,9.06-8.1,9.06,0,0,7.06-9.73,3.24-11.06-3.81-1.33-10.58,17.26-9.34,18.31,19.93-12.3,42.62-11.06,43-12.4-14.78-6.48-23.76-29.86-27.46-31.56Z" fill="currentColor" stroke-width="0"/></g></svg>