<svg id="uuid-9d834ff1-514b-4e01-8544-de66b9816562" xmlns="http://www.w3.org/2000/svg" width="118" height="117.71" viewBox="0 0 118 117.71"><g id="uuid-edc78935-d3dc-4db4-a009-a8f3b12fe697"><path d="M113.52,14.35v80.01c0,7.43-6.02,13.44-13.44,13.44H8.92v9.91h95.64c7.43,0,13.44-6.02,13.44-13.44V14.35h-4.48Z" fill="currentColor" stroke-width="0"/><path d="M109.08,89.92V0H4.6C2.06,0,0,2.06,0,4.6v98.76h95.64c7.43,0,13.44-6.02,13.44-13.44ZM16.6,20.61c-2.99,0-5.42-2.43-5.42-5.42s2.43-5.42,5.42-5.42c2.17,0,4.03,1.29,4.9,3.13h68c.86-1.85,2.72-3.13,4.9-3.13,2.99,0,5.42,2.43,5.42,5.42s-2.43,5.42-5.42,5.42c-2.28,0-4.22-1.41-5.02-3.39H21.62c-.8,1.99-2.74,3.39-5.02,3.39ZM54.4,82.22c-4.75-17.21-8.6-21.06-25.81-25.81,17.21-4.75,21.06-8.6,25.81-25.81,4.75,17.21,8.6,21.06,25.81,25.81-17.21,4.75-21.06,8.6-25.81,25.81ZM80.21,96.71c-2.77-10.03-5.01-12.27-15.04-15.04,10.03-2.77,12.27-5.01,15.04-15.04,2.77,10.03,5.01,12.27,15.04,15.04-10.03,2.77-12.27,5.01-15.04,15.04Z" fill="currentColor" stroke-width="0"/></g></svg>