<svg id="uuid-6a349279-b73c-46c4-ab46-cd6bbc52c209" xmlns="http://www.w3.org/2000/svg" width="104.04" height="118" viewBox="0 0 104.04 118"><g id="uuid-3ae1470c-516b-4c94-9792-ddbe6e12e115"><rect x="45.69" y="44.03" width="12.88" height="12.88" transform="translate(-20.42 51.65) rotate(-45)" fill="currentColor" stroke-width="0"/><path d="M74.58,115.01c0,2.02,1.67,2.99,3.43,2.99s9.98-2.99,10.48-3.34c.5-.35,3.61-1.23,3.61-3.52v-5.06l-17.52.06v8.88Z" fill="currentColor" stroke-width="0"/><path d="M11.94,111.13c0,2.29,3.11,3.17,3.61,3.52.5.35,8.71,3.34,10.48,3.34s3.43-.97,3.43-2.99v-8.88l-17.52-.06v5.06Z" fill="currentColor" stroke-width="0"/><path d="M56.48,42.03l6.37,6.16h31.43c1.95,0,12.02-2.71,5.99-11.1-2.61,4.76-9.02,4.93-9.32,4.93h-34.47Z" fill="currentColor" stroke-width="0"/><path d="M13.13,40.04h36.49l2.4-2.32,2.4,2.32h36.51c.25,0,6.43-.19,8.03-4.93-2.49-4.34-3.36-8.62-3.36-13.85,0-5.64-4.05-7.83-6.51-7.83h-19.55c-.02-3.23-1.36-13.42-17.51-13.42s-17.49,10.2-17.51,13.42H14.96c-2.46,0-6.51,2.19-6.51,7.83,0,5.23-.88,9.51-3.36,13.85,1.59,4.74,7.77,4.93,8.05,4.93ZM52.02,7.31s9.23-.47,9.76,6.38c-2.73,1.2-6.09,1.93-9.76,1.94-3.67,0-7.03-.74-9.76-1.94.53-6.85,9.76-6.38,9.76-6.38Z" fill="currentColor" stroke-width="0"/><path d="M9.77,48.19h31.43l6.37-6.16H13.11c-.32,0-6.73-.18-9.34-4.93-6.03,8.38,4.04,11.1,5.99,11.1Z" fill="currentColor" stroke-width="0"/><path d="M16.04,82.44c0,1.06,1.32,2.52,2.61,2.52h10.48c.41,0,2.43-.1,2.43-2v-10.24h-15.52v9.71Z" fill="currentColor" stroke-width="0"/><path d="M31.57,50.47h-15.52v12.69h15.52v-12.69Z" fill="currentColor" stroke-width="0"/><path d="M87.99,50.47h-15.52v12.69h15.52v-12.69Z" fill="currentColor" stroke-width="0"/><path d="M72.47,82.97c0,1.9,2.03,2,2.43,2h10.48c1.3,0,2.61-1.47,2.61-2.52v-9.71h-15.52v10.24Z" fill="currentColor" stroke-width="0"/><path d="M103.78,65.62c-.2-3.16,0-15.15-5.63-15.15h-8.16v12.69h.57c.89,0,1.6.72,1.6,1.6v6.36c0,.89-.72,1.6-1.6,1.6h-.57v9.71c0,2.28-2.28,4.52-4.61,4.52h-10.48c-2.61,0-4.43-1.64-4.43-3.99v-10.24h-1.07c-.89,0-1.6-.72-1.6-1.6v-6.36c0-.89.72-1.6,1.6-1.6h1.07v-12.69h-6.13l-12.32,13.13-12.32-13.13h-6.13v12.69h1.07c.89,0,1.6.72,1.6,1.6v6.36c0,.89-.72,1.6-1.6,1.6h-1.07v10.24c0,2.35-1.82,3.99-4.43,3.99h-10.48c-2.33,0-4.61-2.24-4.61-4.52v-9.71h-.57c-.89,0-1.6-.72-1.6-1.6v-6.36c0-.89.72-1.6,1.6-1.6h.57v-12.69H5.89C.26,50.47.46,62.46.26,65.62c-.2,3.29-.46,15.59,0,23.94.47,8.51,5.22,14.61,10.65,14.61h82.22c5.43,0,10.18-6.1,10.65-14.61.46-8.35.2-20.66,0-23.94Z" fill="currentColor" stroke-width="0"/></g></svg>