<svg id="uuid-613c94f8-1680-415c-9a70-cd1a7c03b24b" xmlns="http://www.w3.org/2000/svg" width="118" height="106.95" viewBox="0 0 118 106.95"><g id="uuid-62652932-1c1d-497c-8a30-fa1ed418d2b2"><path d="M.06,8.53c-.24,10.15.21,74.54,1.87,93.89,9.84,1.94,36.87-7.24,36.87-7.24V0S2.25,4.85.06,8.53ZM33.65,40.52c.95,0,1.73.77,1.73,1.73s-.77,1.73-1.73,1.73-1.73-.77-1.73-1.73.77-1.73,1.73-1.73ZM26.1,45.93c.95,0,1.73.77,1.73,1.73s-.77,1.73-1.73,1.73-1.73-.77-1.73-1.73.77-1.73,1.73-1.73ZM21.66,53.23c.95,0,1.73.77,1.73,1.73s-.77,1.73-1.73,1.73-1.73-.77-1.73-1.73.77-1.73,1.73-1.73ZM19.06,60.82c.95,0,1.73.77,1.73,1.73s-.77,1.73-1.73,1.73-1.73-.77-1.73-1.73.77-1.73,1.73-1.73ZM18.08,71.13c6.02-7.92,10.9-3.04,2.99,2.99,7.92,6.02,3.04,10.9-2.99,2.99-6.02,7.92-10.9,3.04-2.99-2.99-7.92-6.02-3.04-10.9,2.99-2.99Z" fill="currentColor" stroke-width="0"/><path d="M40.83,95.37l36.65,11.58V13.56C60.77,8.44,40.83,0,40.83,0v95.37ZM72.43,66.99c.95,0,1.73.77,1.73,1.73s-.77,1.73-1.73,1.73-1.73-.77-1.73-1.73.77-1.73,1.73-1.73ZM66.3,61.92c.95,0,1.73.77,1.73,1.73s-.77,1.73-1.73,1.73-1.73-.77-1.73-1.73.77-1.73,1.73-1.73ZM61.33,54.96c.95,0,1.73.77,1.73,1.73s-.77,1.73-1.73,1.73-1.73-.77-1.73-1.73.77-1.73,1.73-1.73ZM57.88,47.66c.95,0,1.73.77,1.73,1.73s-.77,1.73-1.73,1.73-1.73-.77-1.73-1.73.77-1.73,1.73-1.73ZM52.29,41.53c.95,0,1.73.77,1.73,1.73s-.77,1.73-1.73,1.73-1.73-.77-1.73-1.73.77-1.73,1.73-1.73ZM45,38.5c.95,0,1.73.77,1.73,1.73s-.77,1.73-1.73,1.73-1.73-.77-1.73-1.73.77-1.73,1.73-1.73Z" fill="currentColor" stroke-width="0"/><path d="M79.5,13.65v93.3s25.37-7.11,37.04-12.94c0-3.86,1.47-82.69,1.47-89.16-8.2,3.11-38.5,8.8-38.5,8.8ZM84.38,72.6c-.95,0-1.73-.77-1.73-1.73s.77-1.73,1.73-1.73,1.73.77,1.73,1.73-.77,1.73-1.73,1.73ZM91.8,70.45c-.95,0-1.73-.77-1.73-1.73s.77-1.73,1.73-1.73,1.73.77,1.73,1.73-.77,1.73-1.73,1.73ZM99.4,66.68c-.95,0-1.73-.77-1.73-1.73s.77-1.73,1.73-1.73,1.73.77,1.73,1.73-.77,1.73-1.73,1.73ZM104.61,60.52c-.95,0-1.73-.77-1.73-1.73s.77-1.73,1.73-1.73,1.73.77,1.73,1.73-.77,1.73-1.73,1.73ZM108.07,52.85c-.95,0-1.73-.77-1.73-1.73s.77-1.73,1.73-1.73,1.73.77,1.73,1.73-.77,1.73-1.73,1.73ZM109.28,44.09c-.95,0-1.73-.77-1.73-1.73s.77-1.73,1.73-1.73,1.73.77,1.73,1.73-.77,1.73-1.73,1.73Z" fill="currentColor" stroke-width="0"/></g></svg>