<svg id="uuid-b154c0e0-ecf7-4d47-86bb-ba83b068c6cd" xmlns="http://www.w3.org/2000/svg" width="91.11" height="118" viewBox="0 0 91.11 118"><g id="uuid-86112cea-0fc4-4854-8622-cd490da61902"><path d="M84.2,0H6.91C3.11,0,0,3.11,0,6.91v104.18c0,3.8,3.11,6.91,6.91,6.91h77.29c3.8,0,6.91-3.11,6.91-6.91V6.91c0-3.8-3.11-6.91-6.91-6.91ZM86.56,107.38c0,3.47-2.84,6.3-6.3,6.3H10.85c-3.47,0-6.3-2.84-6.3-6.3V10.85c0-3.47,2.84-6.3,6.3-6.3h69.4c3.47,0,6.3,2.84,6.3,6.3v96.53Z" fill="currentColor" stroke-width="0"/><path d="M78.3,6.81H12.81c-3.3,0-6,2.7-6,6v92.61c0,3.3,2.7,6,6,6h65.48c3.3,0,6-2.7,6-6V12.81c0-3.3-2.7-6-6-6ZM45.55,86.21c-4.99-18.06-9.03-22.1-27.09-27.09,18.06-4.99,22.1-9.03,27.09-27.09,4.99,18.06,9.03,22.1,27.09,27.09-18.06,4.99-22.1,9.03-27.09,27.09Z" fill="currentColor" stroke-width="0"/></g></svg>