<svg id="uuid-23fbfc54-9a77-4e9c-9753-0f2181bd633f" xmlns="http://www.w3.org/2000/svg" width="88.72" height="118" viewBox="0 0 88.72 118"><g id="uuid-410f2839-c9a9-4122-8eb3-18e59603b457"><path d="M60.44,16.64H28.1c-1.66,0-3.09-.95-3.81-2.33h-15.68v93.97h48.3l14.98-22.72,8.21,7.81V14.31h-15.86c-.72,1.38-2.14,2.33-3.81,2.33ZM24.12,66.48c0,1.16-.94,2.1-2.1,2.1h-2.46c-1.16,0-2.1-.94-2.1-2.1v-2.46c0-1.16.94-2.1,2.1-2.1h2.46c1.16,0,2.1.94,2.1,2.1v2.46ZM24.12,56.13c0,1.16-.94,2.1-2.1,2.1h-2.46c-1.16,0-2.1-.94-2.1-2.1v-2.46c0-1.16.94-2.1,2.1-2.1h2.46c1.16,0,2.1.94,2.1,2.1v2.46ZM24.12,45.79c0,1.16-.94,2.1-2.1,2.1h-2.46c-1.16,0-2.1-.94-2.1-2.1v-2.46c0-1.16.94-2.1,2.1-2.1h2.46c1.16,0,2.1.94,2.1,2.1v2.46ZM24.12,35.44c0,1.16-.94,2.1-2.1,2.1h-2.46c-1.16,0-2.1-.94-2.1-2.1v-2.46c0-1.16.94-2.1,2.1-2.1h2.46c1.16,0,2.1.94,2.1,2.1v2.46ZM71.09,66.39c0,1.21-.98,2.19-2.19,2.19H29.72c-1.21,0-2.19-.98-2.19-2.19v-2.28c0-1.21.98-2.19,2.19-2.19h39.17c1.21,0,2.19.98,2.19,2.19v2.28ZM71.09,56.04c0,1.21-.98,2.19-2.19,2.19H29.72c-1.21,0-2.19-.98-2.19-2.19v-2.28c0-1.21.98-2.19,2.19-2.19h39.17c1.21,0,2.19.98,2.19,2.19v2.28ZM71.09,45.7c0,1.21-.98,2.19-2.19,2.19H29.72c-1.21,0-2.19-.98-2.19-2.19v-2.28c0-1.21.98-2.19,2.19-2.19h39.17c1.21,0,2.19.98,2.19,2.19v2.28ZM71.09,33.07v2.28c0,1.21-.98,2.19-2.19,2.19H29.72c-1.21,0-2.19-.98-2.19-2.19v-2.28c0-1.21.98-2.19,2.19-2.19h39.17c1.21,0,2.19.98,2.19,2.19Z" fill="currentColor" stroke-width="0"/><path d="M83,6.02h-13.59v-.52c0-3.04-2.46-5.5-5.5-5.5H24.82c-3.04,0-5.5,2.46-5.5,5.5v.52H5.72c-3.16,0-5.72,2.56-5.72,5.72v100.53c0,3.16,2.56,5.72,5.72,5.72h77.28c3.16,0,5.72-2.56,5.72-5.72V11.75c0-3.16-2.56-5.72-5.72-5.72ZM82.13,95.32h-.02s-2.01,1.14-2.01,1.14h0l-20.88,11.83h0l-3.68,2.09.03-.05-.07.05H6.59V12.22h17.2v-3.98c0-2.38,1.93-4.31,4.31-4.31h32.34c2.38,0,4.31,1.93,4.31,4.31v3.98h17.38v83.09Z" fill="currentColor" stroke-width="0"/></g></svg>