<svg xmlns="http://www.w3.org/2000/svg" xmlns:xlink="http://www.w3.org/1999/xlink" width="0" height="0" style="display:none;"><symbol viewBox="0 0 50 50" id="vgi-enshrouded-ancient-obelisk-r"><path d="M16.97,37.62c-2.52-.34-1.22-21.97-.3-23.52s15.21-8.96,16.16-7.54-13.62,9.55-13.62,9.55c0,0,.28,21.86-2.24,21.51Z" fill="currentColor" stroke-width="0"></path><path d="M32.06,11.3c3.03-.55,2.82,25.29,1.31,25.31s-4.34-24.76-1.31-25.31Z" fill="currentColor" stroke-width="0"></path><path d="M20.06,36.61c-.68-.21.32-7.31,5.11-7.75s5.29,7.4,4.64,7.75-3.42-4.66-4.65-4.69-4.41,4.9-5.09,4.69Z" fill="currentColor" stroke-width="0"></path><path d="M15.42,40.47c-.27-1.14,7.61-1.87,10.03-1.92s9.25-.39,9.13,1.14-7.28.27-9.58.29-9.32,1.63-9.58.49Z" fill="currentColor" stroke-width="0"></path><path d="M20.93,42.67c.13-1.16,8.18-1.97,8.07-.24s-8.2,1.4-8.07.24Z" fill="currentColor" stroke-width="0"></path></symbol><symbol viewBox="0 0 19.17 37.26" id="vgi-enshrouded-ancient-obelisk"><g id="uuid-3e6c04fd-7b4b-43a8-ba61-90914c5da856"><path d="M1.56,31.25c-2.52-.34-1.22-21.97-.3-23.52S16.47-1.23,17.42.18,3.8,9.73,3.8,9.73c0,0,.28,21.86-2.24,21.51Z" fill="currentColor" stroke-width="0"></path><path d="M16.65,4.93c3.03-.55,2.82,25.29,1.31,25.31s-4.34-24.76-1.31-25.31Z" fill="currentColor" stroke-width="0"></path><path d="M4.65,30.24c-.68-.21.32-7.31,5.11-7.75s5.29,7.4,4.64,7.75-3.42-4.66-4.65-4.69-4.41,4.9-5.09,4.69Z" fill="currentColor" stroke-width="0"></path><path d="M0,34.1c-.27-1.14,7.61-1.87,10.03-1.92s9.25-.39,9.13,1.14-7.28.27-9.58.29S.27,35.23,0,34.1Z" fill="currentColor" stroke-width="0"></path><path d="M5.52,36.3c.13-1.16,8.18-1.97,8.07-.24s-8.2,1.4-8.07.24Z" fill="currentColor" stroke-width="0"></path></g></symbol><symbol viewBox="0 0 50 50" id="vgi-enshrouded-ancient-spire-r"><path d="M29.74,7.94c0,1.19-1.69,1.35-3.77,1.35s-3.77-.6-3.77-1.35,1.69-1.35,3.77-1.35,3.77,0,3.77,1.35Z" fill="currentColor" stroke-width="0"></path><path d="M38.87,40.47c-.61-.74-6.22-.04-6.27-.98-.06-.94-.53-15.94-.36-15.99s2.56.51,2.64-.05c.08-.56-4.49-2.21-4.96-1.9-.47.31-.09,18.52-.09,18.52,0,0-2.47.52-2.78.02-.29-.46.18-23.03.27-26.96,1.94-.18,3.3-.63,3.3-1.43,0-1.46-2.43-1.22-5.44-1.22s-5.44-.01-5.44,1.22c0,.87,1.62,1.33,3.85,1.47.01,3.68.06,22.35,0,24.14-.07,1.98-.33,3.1-.89,3.16s-1.14-.08-1.71-.28c-.19-.33.24-17.5-.39-17.67s-2.47-.16-3.16.04c-.7.2-1.32,1.63-1.12,1.88.2.26,2.23.08,2.23.08,0,0,.19,14.03.13,15.95-.19.18-5.2-.35-7.35,0-1.43.8,2.68,2.62,4.5,2.76,1.82.14,18.88.31,19.86,0s3.77-2.03,3.16-2.76Z" fill="currentColor" stroke-width="0"></path></symbol><symbol viewBox="0 0 27.9 36.81" id="vgi-enshrouded-ancient-spire"><g id="uuid-c4605b66-a02d-489c-8630-143f5b54340b"><path d="M18.69,1.35c0,1.19-1.69,1.35-3.77,1.35s-3.77-.6-3.77-1.35,1.69-1.35,3.77-1.35,3.77,0,3.77,1.35Z" fill="currentColor" stroke-width="0"></path><path d="M27.82,33.88c-.61-.74-6.22-.04-6.27-.98-.06-.94-.53-15.94-.36-15.99s2.56.51,2.64-.05c.08-.56-4.49-2.21-4.96-1.9-.47.31-.09,18.52-.09,18.52,0,0-2.47.52-2.78.02-.29-.46.18-23.03.27-26.96,1.94-.18,3.3-.63,3.3-1.43,0-1.46-2.43-1.22-5.44-1.22s-5.44-.01-5.44,1.22c0,.87,1.62,1.33,3.85,1.47.01,3.68.06,22.35,0,24.14-.07,1.98-.33,3.1-.89,3.16s-1.14-.08-1.71-.28c-.19-.33.24-17.5-.39-17.67s-2.47-.16-3.16.04c-.7.2-1.32,1.63-1.12,1.88.2.26,2.23.08,2.23.08,0,0,.19,14.03.13,15.95-.19.18-5.2-.35-7.35,0-1.43.8,2.68,2.62,4.5,2.76,1.82.14,18.88.31,19.86,0s3.77-2.03,3.16-2.76Z" fill="currentColor" stroke-width="0"></path></g></symbol><symbol viewBox="0 0 50 50" id="vgi-enshrouded-cave-r"><path d="M12.6,35.7c3.27.95,5.76-17.11,5.76-17.11,0,0,5.41-.95,12.59,0,3.29,10.05,3.86,15.87,6.36,15.56,2.91-.36-.36-12-3.33-17.7-1.96-1.78-5.35-2.2-8.02-2.2s-5.58.71-8.55,1.84-8.08,18.65-4.81,19.6Z" fill="currentColor" stroke-width="0"></path></symbol><symbol viewBox="0 0 26.9 21.48" id="vgi-enshrouded-cave"><g id="uuid-9084983f-00b4-4527-8110-e72003c736a9"><path d="M1.05,21.45c3.27.95,5.76-17.11,5.76-17.11,0,0,5.41-.95,12.59,0,3.29,10.05,3.86,15.87,6.36,15.56,2.91-.36-.36-12-3.33-17.7-1.96-1.78-5.35-2.2-8.02-2.2s-5.58.71-8.55,1.84S-2.21,20.5,1.05,21.45Z" fill="currentColor" stroke-width="0"></path></g></symbol><symbol viewBox="0 0 14.3 14.84" id="vgi-enshrouded-check"><g id="uuid-197d3af9-ab1c-4bee-831d-9c958ccf83a9"><path d="M4.67,8.78S1.33,4.54.31,5.79s.45,3.88,5.35,9.04C11.45,8.2,16.08,0,13.63,0S4.67,8.78,4.67,8.78Z" fill="currentColor" stroke-width="0"></path></g></symbol><symbol viewBox="0 0 26.14 26.14" id="vgi-enshrouded-circle-check"><g id="uuid-ee8b8c64-2a5e-49ed-a142-4c314c7358b8"><path d="M13.07,0C5.85,0,0,5.85,0,13.07s5.85,13.07,13.07,13.07,13.07-5.85,13.07-13.07S20.28,0,13.07,0ZM11.27,20.9c-4.9-5.17-6.37-7.8-5.35-9.04,1.03-1.25,4.37,2.98,4.37,2.98,0,0,6.5-8.78,8.96-8.78s-2.19,8.2-7.98,14.84Z" fill="currentColor" stroke-width="0"></path></g></symbol><symbol viewBox="0 0 50 50" id="vgi-enshrouded-dungeon-r"><path d="M38.69,12.7c-1.75-.12-26.64.74-27.98,1.16-1.34.42-2.32,2.44-2.17,3.12,1.14.09,2.79.08,4.86,0-.81,7.74-2.78,14.1-2.78,15.5s.71,3.56,1.44,3.56c1.44,0,1.89-4.51,1.89-4.51,0,0,.25-6.72,1.45-14.63,4.69-.21,10.97-.61,17.98-.8.95,3.65,2.06,15.75,2.28,16.84.24,1.22,1.63,5.27,2.97,4.19s1.07-3.89.77-5.85c-.26-1.75-3.83-11.91-4.35-15.21,2.06-.05,4.18-.07,6.34-.07.45-.74-.95-3.18-2.7-3.3Z" fill="currentColor" stroke-width="0"></path><path d="M18.46,19.75c-1.4,1.57,4.31,2.97,7.13,2.97s5.38-.71,5.55-2.08-.62-1.94-1.66-2.12-1.43.99-3.98,1.08-5.64-1.43-7.04.15Z" fill="currentColor" stroke-width="0"></path><path d="M17.88,24.87c-.95,1.63,1.4,2.94,5.79,2.82s7.46-1.78,6.18-2.82-3.53.53-6.36.36c-1.28-.03-4.66-1.99-5.61-.36Z" fill="currentColor" stroke-width="0"></path><path d="M16.43,30.39c-.94,1.01,2.17,2.61,7.63,2.61s8.28-.79,6.89-2.26c-.73-.78-4.21-.52-7.53-.58s-6.38-.44-7,.22Z" fill="currentColor" stroke-width="0"></path></symbol><symbol viewBox="0 0 32.95 24.62" id="vgi-enshrouded-dungeon"><g id="uuid-3d5ae4fc-0eb5-4581-a5d5-b1295ecddefe"><path d="M30.16.01C28.41-.11,3.52.75,2.18,1.17.85,1.59-.13,3.61.01,4.29c1.14.09,2.79.08,4.86,0-.81,7.74-2.78,14.1-2.78,15.5s.71,3.56,1.44,3.56c1.44,0,1.89-4.51,1.89-4.51,0,0,.25-6.72,1.45-14.63,4.69-.21,10.97-.61,17.98-.8.95,3.65,2.06,15.75,2.28,16.84.24,1.22,1.63,5.27,2.97,4.19s1.07-3.89.77-5.85c-.26-1.75-3.83-11.91-4.35-15.21,2.06-.05,4.18-.07,6.34-.07.45-.74-.95-3.18-2.7-3.3Z" fill="currentColor" stroke-width="0"></path><path d="M9.94,7.07c-1.4,1.57,4.31,2.97,7.13,2.97s5.38-.71,5.55-2.08-.62-1.94-1.66-2.12-1.43.99-3.98,1.08-5.64-1.43-7.04.15Z" fill="currentColor" stroke-width="0"></path><path d="M9.36,12.18c-.95,1.63,1.4,2.94,5.79,2.82s7.46-1.78,6.18-2.82-3.53.53-6.36.36c-1.28-.03-4.66-1.99-5.61-.36Z" fill="currentColor" stroke-width="0"></path><path d="M7.9,17.71c-.94,1.01,2.17,2.61,7.63,2.61s8.28-.79,6.89-2.26c-.73-.78-4.21-.52-7.53-.58s-6.38-.44-7,.22Z" fill="currentColor" stroke-width="0"></path></g></symbol><symbol viewBox="0 0 50 50" id="vgi-enshrouded-elixir-well-r"><path d="M20.92,12.18c-.56-.56,2.38-4.04,5.52-4.04s7.22,3.45,6.71,4.04-5.38-1.31-6.71-1.28-4.96,1.84-5.52,1.28Z" fill="currentColor" stroke-width="0"></path><path d="M5.09,22.11c1.25-1.46,4.43,1.73,6.91,1.75s4.46-3.14,7.21-2.06-4.11,3.98-7.46,3.98-7.92-2.21-6.67-3.67Z" fill="currentColor" stroke-width="0"></path><path d="M18.64,26.39c-.27-.61-6.79.72-5.52,2.23,2.27,2.72,5.79-1.62,5.52-2.23Z" fill="currentColor" stroke-width="0"></path><path d="M44.91,22.06c-1.11-1.06-3.52,1.84-5.49,2.05s-3.66-2.26-5.76-1.18,3.58,2.84,6.24,2.57,6.11-2.39,5.01-3.44Z" fill="currentColor" stroke-width="0"></path><path d="M33.07,27.09c.27-.61,6.79.72,5.52,2.23-2.27,2.72-5.79-1.62-5.52-2.23Z" fill="currentColor" stroke-width="0"></path><path d="M23,20.82c-1.45,0-.8,9.22-1.25,12.74s-2.94,7.89-2.32,8.24,3.3-.94,4.23-7.04c.85-9.4.78-13.95-.67-13.95Z" fill="currentColor" stroke-width="0"></path><path d="M29.02,20.08c-2.14,0-1.53,8.39-.64,13.29,1.69,5.97,5.79,8.42,6.68,7.53s-4.14-5.11-4.5-7.98c-.31-1.58.45-12.85-1.54-12.85Z" fill="currentColor" stroke-width="0"></path><path d="M13.3,15.06c-1.07,1.69,2.08,4.72,4.16,4.72s5.64-3.71,8.73-3.77c3.09-.06,7.1,5.26,9.89,4.66,2.79-.59,6.97-6.71,4.67-6.71s-3.9,2.2-5.3,2.44-6.71-2.08-9.06-2.26-7.37,2.85-8.58,2.88-3.45-3.65-4.51-1.96Z" fill="currentColor" stroke-width="0"></path></symbol><symbol viewBox="0 0 40.24 33.72" id="vgi-enshrouded-elixir-well"><g id="uuid-f098148f-46ab-4226-b737-a3cf73acc5db"><path d="M16.04,4.04c-.56-.56,2.38-4.04,5.52-4.04s7.22,3.45,6.71,4.04-5.38-1.31-6.71-1.28-4.96,1.84-5.52,1.28Z" fill="currentColor" stroke-width="0"></path><path d="M.21,13.98c1.25-1.46,4.43,1.73,6.91,1.75s4.46-3.14,7.21-2.06-4.11,3.98-7.46,3.98S-1.04,15.43.21,13.98Z" fill="currentColor" stroke-width="0"></path><path d="M13.75,18.25c-.27-.61-6.79.72-5.52,2.23,2.27,2.72,5.79-1.62,5.52-2.23Z" fill="currentColor" stroke-width="0"></path><path d="M40.02,13.92c-1.11-1.06-3.52,1.84-5.49,2.05s-3.66-2.26-5.76-1.18,3.58,2.84,6.24,2.57,6.11-2.39,5.01-3.44Z" fill="currentColor" stroke-width="0"></path><path d="M28.18,18.95c.27-.61,6.79.72,5.52,2.23-2.27,2.72-5.79-1.62-5.52-2.23Z" fill="currentColor" stroke-width="0"></path><path d="M18.12,12.68c-1.45,0-.8,9.22-1.25,12.74s-2.94,7.89-2.32,8.24,3.3-.94,4.23-7.04c.85-9.4.78-13.95-.67-13.95Z" fill="currentColor" stroke-width="0"></path><path d="M24.14,11.94c-2.14,0-1.53,8.39-.64,13.29,1.69,5.97,5.79,8.42,6.68,7.53s-4.14-5.11-4.5-7.98c-.31-1.58.45-12.85-1.54-12.85Z" fill="currentColor" stroke-width="0"></path><path d="M8.42,6.92c-1.07,1.69,2.08,4.72,4.16,4.72s5.64-3.71,8.73-3.77c3.09-.06,7.1,5.26,9.89,4.66,2.79-.59,6.97-6.71,4.67-6.71s-3.9,2.2-5.3,2.44-6.71-2.08-9.06-2.26-7.37,2.85-8.58,2.88-3.45-3.65-4.51-1.96Z" fill="currentColor" stroke-width="0"></path></g></symbol><symbol viewBox="0 0 50 50" id="vgi-enshrouded-enemy-camp-r"><path d="M14.07,12.26c-.62.79,3.13,8.07,3.49,8.03s.85-2.94.85-2.94l3.71,4.13-6.58,7.11s-6.52-6.41-7.54-5.39,6.75,8.87,7.6,8.79S31.6,13.94,31.98,13.96s.08,6.98.08,6.98c0,0-12.81,13-12.88,13.72s6.32,7.98,7.12,7.37-4.22-6.59-4.22-6.59l6.27-7,5.79,5.63s.95,6.46,1.66,6.48.83-5.58.83-5.58c0,0,5.47-.31,5.47-1.01s-6.35-1.01-6.35-1.01l-5.86-6.08s4.61-4.42,4.72-5.15.37-13.63-.28-13.77-10.71,11.95-10.71,11.95l-3.88-3.89s3.5-.05,3.52-.62-8.57-3.91-9.19-3.11Z" fill="currentColor" stroke-width="0"></path><path d="M16.61,34.48c1.45,1.23-4.69,7.47-5.88,6.36s4.43-7.59,5.88-6.36Z" fill="currentColor" stroke-width="0"></path></symbol><symbol viewBox="0 0 34.19 34.13" id="vgi-enshrouded-enemy-camp"><g id="uuid-14ed45e2-72de-487c-8a9f-bb9d72a15a47"><path d="M6.17,4.32c-.62.79,3.13,8.07,3.49,8.03s.85-2.94.85-2.94l3.71,4.13-6.58,7.11S1.1,14.24.09,15.26s6.75,8.87,7.6,8.79S23.7,6.01,24.07,6.02s.08,6.98.08,6.98c0,0-12.81,13-12.88,13.72s6.32,7.98,7.12,7.37-4.22-6.59-4.22-6.59l6.27-7,5.79,5.63s.95,6.46,1.66,6.48.83-5.58.83-5.58c0,0,5.47-.31,5.47-1.01s-6.35-1.01-6.35-1.01l-5.86-6.08s4.61-4.42,4.72-5.15S27.08.14,26.43,0s-10.71,11.95-10.71,11.95l-3.88-3.89s3.5-.05,3.52-.62S6.79,3.53,6.17,4.32Z" fill="currentColor" stroke-width="0"></path><path d="M8.7,26.55c1.45,1.23-4.69,7.47-5.88,6.36s4.43-7.59,5.88-6.36Z" fill="currentColor" stroke-width="0"></path></g></symbol><symbol viewBox="0 0 50 50" id="vgi-enshrouded-flame-r"><path d="M24.91,4.12s.65,2.73.48,4.1-2.97,3.27-3.21,4.51.71,4.4.42,5.41-2.84,2.81-2.84,2.81c0,0,.94-2.87.88-3.94s-1.31-3.03-1.31-3.03c0,0,0,3.45-.36,4.1s-3.56,1.6-3.98,6.59c-.42,4.99,4.93,8.61,9.03,8.61,3.69,0,5.05-2.02,5.23-4.57.18-3.21-2.02-4.75-3.92-4.81s-3.21,1.29-3.48,2.54.93,2.69,2.35,2.63,2.02-1.54,2.02-1.54c.51.45.65,1.18.55,1.77s-.83,1.67-2.91,1.49-3.93-2.9-3.82-4.39,2.22-3.77,5.28-3.77,4.54,1.73,5.13,2.38,1.59,3.1.28,5.96c2.32-.24,5.52-4.57,5.52-6.83s-1.43-4.69-1.43-4.69c0,0-2.08-2.79-3.15-2.97s-.95-3.51-.83-3.74-1.66,2.01-1.13,3.62,2.32,4.75,2.32,4.75c0,0-2-1.86-2.85-2.44s-1.54-1.23-2.06-1.79-.87-3.37-.33-4.25,1.35-2.28,1.26-4.05-3.15-4.46-3.15-4.46Z" fill="currentColor" stroke-width="0"></path><path d="M8.56,33.02s2.64-1.78,5.41-.09c2.48,1.52,3.25,5.52,4.22,5.35s4.17-2.53,7.42-2.47,5.55,2.69,6.49,2.46,4.45-4.8,5.83-5.23c1.56-.49,3.52.62,3.52.62-2.52-.04-3.32.87-3.86,1.29s-2.92,4.8-5.11,5.1-2.94-1.25-6.64-1.78-5.5,2.26-7.76,1.81-4.15-5.18-5.29-6.12c-.83-.69-4.22-.95-4.22-.95Z" fill="currentColor" stroke-width="0"></path><path d="M21.4,45.64s2.47-4.81,4.7-4.81,4.15,5.05,4.15,5.05c0,0-2.77-2.13-4.31-2.2s-4.54,1.96-4.54,1.96Z" fill="currentColor" stroke-width="0"></path></symbol><symbol viewBox="0 0 50 50" id="vgi-enshrouded-flame-shrine-r"><path d="M19.64,17.76c.42-.09,2.64,5.85,2.2,6.12s-1.6-2.47-1.72-2.55c-.12-.09-2.02,5.29-2.08,7.54-.06,2.26.74,8.85,7.13,9.21,6.86-.24,6.97-7.56,6.86-8.23s-1.56-9.53-2.13-9.48c-.57.06-1.52,3.86-1.94,3.62s-2.03-5.58-2.5-5.58-.98,1.84-2.14,3.41c-.77-1.33,1.38-12.05,2.07-12.05s2.47,10.99,2.68,10.96c.21-.03,1.49-2.85,2.2-2.73.71.12,3.65,8.5,3.65,11.79s-1.48,10.13-8.35,10.43c-7.49.33-9.49-7.08-9.5-10.81-.01-3.86,3.15-11.55,3.56-11.64Z" fill="currentColor" stroke-width="0"></path><path d="M22.88,28.69c-1.96,2-.3,6.01,2.12,5.79s4.25-2.5,3.58-4.68-3.74-3.12-5.7-1.11Z" fill="currentColor" stroke-width="0"></path></symbol><symbol viewBox="0 0 17.85 30.46" id="vgi-enshrouded-flame-shrine"><g id="uuid-b8d3fb21-5df2-42cf-8655-0354ed1d7182"><path d="M3.56,7.99c.42-.09,2.64,5.85,2.2,6.12s-1.6-2.47-1.72-2.55c-.12-.09-2.02,5.29-2.08,7.54-.06,2.26.74,8.85,7.13,9.21,6.86-.24,6.97-7.56,6.86-8.23s-1.56-9.53-2.13-9.48c-.57.06-1.52,3.86-1.94,3.62s-2.03-5.58-2.5-5.58-.98,1.84-2.14,3.41c-.77-1.33,1.38-12.05,2.07-12.05s2.47,10.99,2.68,10.96c.21-.03,1.49-2.85,2.2-2.73.71.12,3.65,8.5,3.65,11.79s-1.48,10.13-8.35,10.43C2.02,30.77.01,23.37,0,19.63c-.01-3.86,3.15-11.55,3.56-11.64Z" fill="currentColor" stroke-width="0"></path><path d="M6.8,18.92c-1.96,2-.3,6.01,2.12,5.79s4.25-2.5,3.58-4.68-3.74-3.12-5.7-1.11Z" fill="currentColor" stroke-width="0"></path></g></symbol><symbol viewBox="0 0 32.88 41.76" id="vgi-enshrouded-flame"><g id="uuid-fcc9fa1b-f0bd-4270-b565-590ebda16024"><path d="M16.35,0s.65,2.73.48,4.1-2.97,3.27-3.21,4.51.71,4.4.42,5.41-2.84,2.81-2.84,2.81c0,0,.94-2.87.88-3.94s-1.31-3.03-1.31-3.03c0,0,0,3.45-.36,4.1s-3.56,1.6-3.98,6.59c-.42,4.99,4.93,8.61,9.03,8.61,3.69,0,5.05-2.02,5.23-4.57.18-3.21-2.02-4.75-3.92-4.81s-3.21,1.29-3.48,2.54.93,2.69,2.35,2.63,2.02-1.54,2.02-1.54c.51.45.65,1.18.55,1.77s-.83,1.67-2.91,1.49-3.93-2.9-3.82-4.39,2.22-3.77,5.28-3.77,4.54,1.73,5.13,2.38,1.59,3.1.28,5.96c2.32-.24,5.52-4.57,5.52-6.83s-1.43-4.69-1.43-4.69c0,0-2.08-2.79-3.15-2.97s-.95-3.51-.83-3.74-1.66,2.01-1.13,3.62,2.32,4.75,2.32,4.75c0,0-2-1.86-2.85-2.44s-1.54-1.23-2.06-1.79-.87-3.37-.33-4.25,1.35-2.28,1.26-4.05-3.15-4.46-3.15-4.46Z" fill="currentColor" stroke-width="0"></path><path d="M0,28.91s2.64-1.78,5.41-.09c2.48,1.52,3.25,5.52,4.22,5.35s4.17-2.53,7.42-2.47,5.55,2.69,6.49,2.46,4.45-4.8,5.83-5.23c1.56-.49,3.52.62,3.52.62-2.52-.04-3.32.87-3.86,1.29s-2.92,4.8-5.11,5.1-2.94-1.25-6.64-1.78-5.5,2.26-7.76,1.81-4.15-5.18-5.29-6.12c-.83-.69-4.22-.95-4.22-.95Z" fill="currentColor" stroke-width="0"></path><path d="M12.84,41.52s2.47-4.81,4.7-4.81,4.15,5.05,4.15,5.05c0,0-2.77-2.13-4.31-2.2s-4.54,1.96-4.54,1.96Z" fill="currentColor" stroke-width="0"></path></g></symbol><symbol viewBox="0 0 50 50" id="vgi-enshrouded-hollow-hall-r"><path d="M24.08,6.52c-2.5,0-9.59,4.78-9.39,10.75.22,6.44,6.27,5.76,6.27,5.76,0,0-3.68-2.1-3.72-4-.11-4.63,2.32-5.22,2.74-6.82.18,1.71,1,1.26,1.92,5.08,1.17-.66,2.17-2.52,2.17-2.52,0,0,.63,1.33.77,2.41.16,1.19-1.36,4.98-1.36,4.98,0,0,3.09-1.69,3.71-5.68.4-2.53-1.14-2.76-1.6-5.19-1.09,1.76-2.94,2.29-2.94,2.29,0,0-.71-3.86,1.43-7.07Z" fill="currentColor" stroke-width="0"></path><path d="M20.16,25.36c.17,1.33,2.92.96,4.34.53s2.86-2.5,1.96-3.39-1.83,1.11-3.15,1.61-3.32-.08-3.15,1.25Z" fill="currentColor" stroke-width="0"></path><path d="M22.95,28.33c.14,1.15,2.24.51,3.21,0s2.56-1.69,1.72-2.44-1.66.81-2.47,1.22-2.61.07-2.47,1.22Z" fill="currentColor" stroke-width="0"></path><path d="M26.45,29.69c-2.48,1.58,5.67,10.51,8.38,13.78,1.09-1.46,0-3.92,0-3.92,0,0-6.3-11.18-8.38-9.86Z" fill="currentColor" stroke-width="0"></path></symbol><symbol viewBox="0 0 20.63 36.95" id="vgi-enshrouded-hollow-hall"><g id="uuid-a7f99049-8dfd-4b81-a707-ac7faa3571a9"><path d="M9.39,0C6.9,0-.2,4.78,0,10.75c.22,6.44,6.27,5.76,6.27,5.76,0,0-3.68-2.1-3.72-4-.11-4.63,2.32-5.22,2.74-6.82.18,1.71,1,1.26,1.92,5.08,1.17-.66,2.17-2.52,2.17-2.52,0,0,.63,1.33.77,2.41.16,1.19-1.36,4.98-1.36,4.98,0,0,3.09-1.69,3.71-5.68.4-2.53-1.14-2.76-1.6-5.19-1.09,1.76-2.94,2.29-2.94,2.29,0,0-.71-3.86,1.43-7.07Z" fill="currentColor" stroke-width="0"></path><path d="M5.47,18.83c.17,1.33,2.92.96,4.34.53s2.86-2.5,1.96-3.39-1.83,1.11-3.15,1.61-3.32-.08-3.15,1.25Z" fill="currentColor" stroke-width="0"></path><path d="M8.26,21.8c.14,1.15,2.24.51,3.21,0s2.56-1.69,1.72-2.44-1.66.81-2.47,1.22-2.61.07-2.47,1.22Z" fill="currentColor" stroke-width="0"></path><path d="M11.77,23.17c-2.48,1.58,5.67,10.51,8.38,13.78,1.09-1.46,0-3.92,0-3.92,0,0-6.3-11.18-8.38-9.86Z" fill="currentColor" stroke-width="0"></path></g></symbol><symbol viewBox="0 0 50 50" id="vgi-enshrouded-mine-r"><path d="M30.28,20.96l-.3-.3c-.42-.42-1.1-.42-1.52,0l-6.06,6.06c-.63-.5-1.61-.47-2.19.11l-9.65,9.65c-.31.31-.48.72-.48,1.16s.17.85.48,1.16l1.53,1.53c.31.31.72.48,1.16.48s.85-.17,1.16-.48l9.65-9.65c.31-.31.48-.72.48-1.16,0-.35-.12-.69-.32-.97l6.06-6.06c.42-.42.42-1.1,0-1.52ZM23,29.61l-9.65,9.65s-.15.05-.2,0l-1.53-1.53c-.06-.06-.06-.15,0-.2l9.65-9.65s.06-.04.1-.04.07.01.1.04l1.53,1.53s.05.15,0,.2Z" fill="currentColor" stroke-width="0"></path><path d="M23.46,9.45l-1.12,1.21c-.28.29-.26.76.04,1.04l12.45,11.21c1.01.91,1.77,2.06,2.21,3.34l2.17,6.34c.16.41.77.27.72-.17l-.99-6.98c-.22-2.15-1.22-4.14-2.82-5.59l-11.48-10.43c-.34-.31-.86-.29-1.17.04Z" fill="currentColor" stroke-width="0"></path><rect x="32.2" y="14.81" width="6.26" height="2.12" rx=".87" ry=".87" transform="translate(21.57 -20.33) rotate(45)" fill="currentColor" stroke-width="0"></rect></symbol><symbol viewBox="0 0 29.85 31.62" id="vgi-enshrouded-mine"><g id="uuid-b01a395d-45d8-4b2d-91e5-f693a274e258"><path d="M20.21,11.77l-.3-.3c-.42-.42-1.1-.42-1.52,0l-6.06,6.06c-.63-.5-1.61-.47-2.19.11L.48,27.28c-.31.31-.48.72-.48,1.16s.17.85.48,1.16l1.53,1.53c.31.31.72.48,1.16.48s.85-.17,1.16-.48l9.65-9.65c.31-.31.48-.72.48-1.16,0-.35-.12-.69-.32-.97l6.06-6.06c.42-.42.42-1.1,0-1.52ZM12.93,20.42L3.27,30.08s-.15.05-.2,0l-1.53-1.53c-.06-.06-.06-.15,0-.2l9.65-9.65s.06-.04.1-.04.07.01.1.04l1.53,1.53s.05.15,0,.2Z" fill="currentColor" stroke-width="0"></path><path d="M13.39.26l-1.12,1.21c-.28.29-.26.76.04,1.04l12.45,11.21c1.01.91,1.77,2.06,2.21,3.34l2.17,6.34c.16.41.77.27.72-.17l-.99-6.98c-.22-2.15-1.22-4.14-2.82-5.59L14.56.22c-.34-.31-.86-.29-1.17.04Z" fill="currentColor" stroke-width="0"></path><rect x="22.13" y="5.62" width="6.26" height="2.12" rx=".87" ry=".87" transform="translate(12.12 -15.9) rotate(45)" fill="currentColor" stroke-width="0"></rect></g></symbol><symbol viewBox="0 0 50 50" id="vgi-enshrouded-survivor-camp-r"><path d="M13.83,29.39c-.95-.45,4.96-10.25,4.96-10.25,0,0-1.57-3.3-1.29-3.65s2.75,1.25,2.75,1.25c0,0,5.05-8.29,5.63-8.29s5.48,7.49,5.48,7.49c0,0,2.17-1.43,2.45-1.16s-1.31,3.01-1.31,3.01c0,0,4.56,10.21,4.07,10.63s-10.44-15.89-10.44-15.89c0,0-11.35,17.32-12.3,16.87Z" fill="currentColor" stroke-width="0"></path><path d="M17.11,32.04c-.79-1.37,2.72-5.15,7.95-5.15s9.62,2.98,9.03,4.31-4.13-2.18-8.79-2.06-7.4,4.28-8.18,2.91Z" fill="currentColor" stroke-width="0"></path><path d="M36.05,38.16s5.2-10.04,3.97-10.57-6.58,10.66-6.58,10.66l-4.69-.15s.62-7.64-3.42-7.75-3.77,8.08-3.77,8.08l-4.78-.21s-5.94-11.11-6.88-10.63c-.94.48,5.45,11.08,5.17,11.54-.28.46-1.56-.1-1.78.89-.22,1,1.78,1.47,1.78,1.47,0,0,10.65.15,12.12,0,1.47-.15,2.48-1.07,4.02-.89s1.66.74,3.37.89c1.71.15,3.61-.45,3.79-1.29.18-.85-2.32-2.03-2.32-2.03ZM27.69,38.34h-4.03s-.58-6.03,2.01-6.03,2.03,6.03,2.03,6.03Z" fill="currentColor" stroke-width="0"></path></symbol><symbol viewBox="0 0 30.4 33.1" id="vgi-enshrouded-survivor-camp"><g id="uuid-08252f87-60ff-4052-a6f4-e6a51b652375"><path d="M4.03,20.94c-.95-.45,4.96-10.25,4.96-10.25,0,0-1.57-3.3-1.29-3.65s2.75,1.25,2.75,1.25c0,0,5.05-8.29,5.63-8.29s5.48,7.49,5.48,7.49c0,0,2.17-1.43,2.45-1.16s-1.31,3.01-1.31,3.01c0,0,4.56,10.21,4.07,10.63s-10.44-15.89-10.44-15.89c0,0-11.35,17.32-12.3,16.87Z" fill="currentColor" stroke-width="0"></path><path d="M7.31,23.58c-.79-1.37,2.72-5.15,7.95-5.15s9.62,2.98,9.03,4.31-4.13-2.18-8.79-2.06-7.4,4.28-8.18,2.91Z" fill="currentColor" stroke-width="0"></path><path d="M26.25,29.7s5.2-10.04,3.97-10.57-6.58,10.66-6.58,10.66l-4.69-.15s.62-7.64-3.42-7.75-3.77,8.08-3.77,8.08l-4.78-.21S1.03,18.65.09,19.13c-.94.48,5.45,11.08,5.17,11.54-.28.46-1.56-.1-1.78.89-.22,1,1.78,1.47,1.78,1.47,0,0,10.65.15,12.12,0,1.47-.15,2.48-1.07,4.02-.89s1.66.74,3.37.89c1.71.15,3.61-.45,3.79-1.29.18-.85-2.32-2.03-2.32-2.03ZM17.89,29.89h-4.03s-.58-6.03,2.01-6.03,2.03,6.03,2.03,6.03Z" fill="currentColor" stroke-width="0"></path></g></symbol><symbol viewBox="0 0 50 50" id="vgi-enshrouded-tomb-r"><path d="M10.99,26.86c-.57-.75.14-6.77.14-6.77,0,0-1.63-.8-1.07-1.87s27.04-.27,27.04-.27c0,0,3.1.38,2.94,1.83s-1.87,1.16-1.87,1.16c0,0,1.12,7.77-.45,8.11s-1.65-8.06-1.65-8.06h-2.02s.14,14.88.14,14.88l2.72-.49s.03-3.36,1.11-3.39,1.77,4.86.98,5.61-9.73.6-9.8-.76,2.94-1.13,2.94-1.13l-.59-15.53h-13.46l-.12,16.4s3.2-.04,3.33.86-5.99.88-6.18.73-.27-.93-.39-1.03-3.55.07-3.58-.16-1-5.84.13-6.06,1.04,3.88,1.19,4,3.21.18,3.21.18v-14.9s-2.54-.24-2.54-.24c0,0,.36,7.76-.06,7.96s-1.55-.29-2.12-1.04Z" fill="currentColor" stroke-width="0"></path><path d="M15.54,12.72c.71-1.63,2.85-.88,2.94.06,11.63-.03,16.57-.25,16.57,1.37s-4.63.86-16.75.28c-.89.98-3.56.68-2.76-1.71Z" fill="currentColor" stroke-width="0"></path></symbol><symbol viewBox="0 0 30.11 26.48" id="vgi-enshrouded-tomb"><g id="uuid-4fee11e8-7003-4b00-8d38-20198c7f7889"><path d="M1.05,15.1c-.57-.75.14-6.77.14-6.77,0,0-1.63-.8-1.07-1.87s27.04-.27,27.04-.27c0,0,3.1.38,2.94,1.83s-1.87,1.16-1.87,1.16c0,0,1.12,7.77-.45,8.11s-1.65-8.06-1.65-8.06h-2.02s.14,14.88.14,14.88l2.72-.49s.03-3.36,1.11-3.39,1.77,4.86.98,5.61-9.73.6-9.8-.76,2.94-1.13,2.94-1.13l-.59-15.53h-13.46l-.12,16.4s3.2-.04,3.33.86-5.99.88-6.18.73-.27-.93-.39-1.03-3.55.07-3.58-.16-1-5.84.13-6.06,1.04,3.88,1.19,4,3.21.18,3.21.18v-14.9s-2.54-.24-2.54-.24c0,0,.36,7.76-.06,7.96s-1.55-.29-2.12-1.04Z" fill="currentColor" stroke-width="0"></path><path d="M5.6.96c.71-1.63,2.85-.88,2.94.06,11.63-.03,16.57-.25,16.57,1.37s-4.63.86-16.75.28c-.89.98-3.56.68-2.76-1.71Z" fill="currentColor" stroke-width="0"></path></g></symbol></svg>