<svg id="uuid-98164bee-dbce-4df7-b3cc-2b191544a645" xmlns="http://www.w3.org/2000/svg" width="50" height="50" viewBox="0 0 50 50"><path d="M29.74,7.94c0,1.19-1.69,1.35-3.77,1.35s-3.77-.6-3.77-1.35,1.69-1.35,3.77-1.35,3.77,0,3.77,1.35Z" fill="currentColor" stroke-width="0"/><path d="M38.87,40.47c-.61-.74-6.22-.04-6.27-.98-.06-.94-.53-15.94-.36-15.99s2.56.51,2.64-.05c.08-.56-4.49-2.21-4.96-1.9-.47.31-.09,18.52-.09,18.52,0,0-2.47.52-2.78.02-.29-.46.18-23.03.27-26.96,1.94-.18,3.3-.63,3.3-1.43,0-1.46-2.43-1.22-5.44-1.22s-5.44-.01-5.44,1.22c0,.87,1.62,1.33,3.85,1.47.01,3.68.06,22.35,0,24.14-.07,1.98-.33,3.1-.89,3.16s-1.14-.08-1.71-.28c-.19-.33.24-17.5-.39-17.67s-2.47-.16-3.16.04c-.7.2-1.32,1.63-1.12,1.88.2.26,2.23.08,2.23.08,0,0,.19,14.03.13,15.95-.19.18-5.2-.35-7.35,0-1.43.8,2.68,2.62,4.5,2.76,1.82.14,18.88.31,19.86,0s3.77-2.03,3.16-2.76Z" fill="currentColor" stroke-width="0"/></svg>