<svg id="uuid-d7c106c9-3f85-41f6-9e46-2efbdab30cfa" xmlns="http://www.w3.org/2000/svg" width="19.17" height="37.26" viewBox="0 0 19.17 37.26"><g id="uuid-3e6c04fd-7b4b-43a8-ba61-90914c5da856"><path d="M1.56,31.25c-2.52-.34-1.22-21.97-.3-23.52S16.47-1.23,17.42.18,3.8,9.73,3.8,9.73c0,0,.28,21.86-2.24,21.51Z" fill="currentColor" stroke-width="0"/><path d="M16.65,4.93c3.03-.55,2.82,25.29,1.31,25.31s-4.34-24.76-1.31-25.31Z" fill="currentColor" stroke-width="0"/><path d="M4.65,30.24c-.68-.21.32-7.31,5.11-7.75s5.29,7.4,4.64,7.75-3.42-4.66-4.65-4.69-4.41,4.9-5.09,4.69Z" fill="currentColor" stroke-width="0"/><path d="M0,34.1c-.27-1.14,7.61-1.87,10.03-1.92s9.25-.39,9.13,1.14-7.28.27-9.58.29S.27,35.23,0,34.1Z" fill="currentColor" stroke-width="0"/><path d="M5.52,36.3c.13-1.16,8.18-1.97,8.07-.24s-8.2,1.4-8.07.24Z" fill="currentColor" stroke-width="0"/></g></svg>