<svg id="uuid-aff181f1-8654-4f2d-8cc9-c81f55280c08" xmlns="http://www.w3.org/2000/svg" width="50" height="50" viewBox="0 0 50 50"><path d="M16.97,37.62c-2.52-.34-1.22-21.97-.3-23.52s15.21-8.96,16.16-7.54-13.62,9.55-13.62,9.55c0,0,.28,21.86-2.24,21.51Z" fill="currentColor" stroke-width="0"/><path d="M32.06,11.3c3.03-.55,2.82,25.29,1.31,25.31s-4.34-24.76-1.31-25.31Z" fill="currentColor" stroke-width="0"/><path d="M20.06,36.61c-.68-.21.32-7.31,5.11-7.75s5.29,7.4,4.64,7.75-3.42-4.66-4.65-4.69-4.41,4.9-5.09,4.69Z" fill="currentColor" stroke-width="0"/><path d="M15.42,40.47c-.27-1.14,7.61-1.87,10.03-1.92s9.25-.39,9.13,1.14-7.28.27-9.58.29-9.32,1.63-9.58.49Z" fill="currentColor" stroke-width="0"/><path d="M20.93,42.67c.13-1.16,8.18-1.97,8.07-.24s-8.2,1.4-8.07.24Z" fill="currentColor" stroke-width="0"/></svg>