<svg id="uuid-44de35f0-b1ff-458e-824b-5561d1885ecf" xmlns="http://www.w3.org/2000/svg" width="32.95" height="24.62" viewBox="0 0 32.95 24.62"><g id="uuid-3d5ae4fc-0eb5-4581-a5d5-b1295ecddefe"><path d="M30.16.01C28.41-.11,3.52.75,2.18,1.17.85,1.59-.13,3.61.01,4.29c1.14.09,2.79.08,4.86,0-.81,7.74-2.78,14.1-2.78,15.5s.71,3.56,1.44,3.56c1.44,0,1.89-4.51,1.89-4.51,0,0,.25-6.72,1.45-14.63,4.69-.21,10.97-.61,17.98-.8.95,3.65,2.06,15.75,2.28,16.84.24,1.22,1.63,5.27,2.97,4.19s1.07-3.89.77-5.85c-.26-1.75-3.83-11.91-4.35-15.21,2.06-.05,4.18-.07,6.34-.07.45-.74-.95-3.18-2.7-3.3Z" fill="currentColor" stroke-width="0"/><path d="M9.94,7.07c-1.4,1.57,4.31,2.97,7.13,2.97s5.38-.71,5.55-2.08-.62-1.94-1.66-2.12-1.43.99-3.98,1.08-5.64-1.43-7.04.15Z" fill="currentColor" stroke-width="0"/><path d="M9.36,12.18c-.95,1.63,1.4,2.94,5.79,2.82s7.46-1.78,6.18-2.82-3.53.53-6.36.36c-1.28-.03-4.66-1.99-5.61-.36Z" fill="currentColor" stroke-width="0"/><path d="M7.9,17.71c-.94,1.01,2.17,2.61,7.63,2.61s8.28-.79,6.89-2.26c-.73-.78-4.21-.52-7.53-.58s-6.38-.44-7,.22Z" fill="currentColor" stroke-width="0"/></g></svg>