<svg id="uuid-2cdfad4a-c757-4e14-b317-a74bea8728e6" xmlns="http://www.w3.org/2000/svg" width="50" height="50" viewBox="0 0 50 50"><path d="M38.69,12.7c-1.75-.12-26.64.74-27.98,1.16-1.34.42-2.32,2.44-2.17,3.12,1.14.09,2.79.08,4.86,0-.81,7.74-2.78,14.1-2.78,15.5s.71,3.56,1.44,3.56c1.44,0,1.89-4.51,1.89-4.51,0,0,.25-6.72,1.45-14.63,4.69-.21,10.97-.61,17.98-.8.95,3.65,2.06,15.75,2.28,16.84.24,1.22,1.63,5.27,2.97,4.19s1.07-3.89.77-5.85c-.26-1.75-3.83-11.91-4.35-15.21,2.06-.05,4.18-.07,6.34-.07.45-.74-.95-3.18-2.7-3.3Z" fill="currentColor" stroke-width="0"/><path d="M18.46,19.75c-1.4,1.57,4.31,2.97,7.13,2.97s5.38-.71,5.55-2.08-.62-1.94-1.66-2.12-1.43.99-3.98,1.08-5.64-1.43-7.04.15Z" fill="currentColor" stroke-width="0"/><path d="M17.88,24.87c-.95,1.63,1.4,2.94,5.79,2.82s7.46-1.78,6.18-2.82-3.53.53-6.36.36c-1.28-.03-4.66-1.99-5.61-.36Z" fill="currentColor" stroke-width="0"/><path d="M16.43,30.39c-.94,1.01,2.17,2.61,7.63,2.61s8.28-.79,6.89-2.26c-.73-.78-4.21-.52-7.53-.58s-6.38-.44-7,.22Z" fill="currentColor" stroke-width="0"/></svg>