<svg id="uuid-53af59f4-bd9b-4b87-92a6-2fd8c6e9d02a" xmlns="http://www.w3.org/2000/svg" width="40.24" height="33.72" viewBox="0 0 40.24 33.72"><g id="uuid-f098148f-46ab-4226-b737-a3cf73acc5db"><path d="M16.04,4.04c-.56-.56,2.38-4.04,5.52-4.04s7.22,3.45,6.71,4.04-5.38-1.31-6.71-1.28-4.96,1.84-5.52,1.28Z" fill="currentColor" stroke-width="0"/><path d="M.21,13.98c1.25-1.46,4.43,1.73,6.91,1.75s4.46-3.14,7.21-2.06-4.11,3.98-7.46,3.98S-1.04,15.43.21,13.98Z" fill="currentColor" stroke-width="0"/><path d="M13.75,18.25c-.27-.61-6.79.72-5.52,2.23,2.27,2.72,5.79-1.62,5.52-2.23Z" fill="currentColor" stroke-width="0"/><path d="M40.02,13.92c-1.11-1.06-3.52,1.84-5.49,2.05s-3.66-2.26-5.76-1.18,3.58,2.84,6.24,2.57,6.11-2.39,5.01-3.44Z" fill="currentColor" stroke-width="0"/><path d="M28.18,18.95c.27-.61,6.79.72,5.52,2.23-2.27,2.72-5.79-1.62-5.52-2.23Z" fill="currentColor" stroke-width="0"/><path d="M18.12,12.68c-1.45,0-.8,9.22-1.25,12.74s-2.94,7.89-2.32,8.24,3.3-.94,4.23-7.04c.85-9.4.78-13.95-.67-13.95Z" fill="currentColor" stroke-width="0"/><path d="M24.14,11.94c-2.14,0-1.53,8.39-.64,13.29,1.69,5.97,5.79,8.42,6.68,7.53s-4.14-5.11-4.5-7.98c-.31-1.58.45-12.85-1.54-12.85Z" fill="currentColor" stroke-width="0"/><path d="M8.42,6.92c-1.07,1.69,2.08,4.72,4.16,4.72s5.64-3.71,8.73-3.77c3.09-.06,7.1,5.26,9.89,4.66,2.79-.59,6.97-6.71,4.67-6.71s-3.9,2.2-5.3,2.44-6.71-2.08-9.06-2.26-7.37,2.85-8.58,2.88-3.45-3.65-4.51-1.96Z" fill="currentColor" stroke-width="0"/></g></svg>