<svg id="uuid-fcd86f4d-f143-44ee-b4a7-ece54ac8feb6" xmlns="http://www.w3.org/2000/svg" width="34.19" height="34.13" viewBox="0 0 34.19 34.13"><g id="uuid-14ed45e2-72de-487c-8a9f-bb9d72a15a47"><path d="M6.17,4.32c-.62.79,3.13,8.07,3.49,8.03s.85-2.94.85-2.94l3.71,4.13-6.58,7.11S1.1,14.24.09,15.26s6.75,8.87,7.6,8.79S23.7,6.01,24.07,6.02s.08,6.98.08,6.98c0,0-12.81,13-12.88,13.72s6.32,7.98,7.12,7.37-4.22-6.59-4.22-6.59l6.27-7,5.79,5.63s.95,6.46,1.66,6.48.83-5.58.83-5.58c0,0,5.47-.31,5.47-1.01s-6.35-1.01-6.35-1.01l-5.86-6.08s4.61-4.42,4.72-5.15S27.08.14,26.43,0s-10.71,11.95-10.71,11.95l-3.88-3.89s3.5-.05,3.52-.62S6.79,3.53,6.17,4.32Z" fill="currentColor" stroke-width="0"/><path d="M8.7,26.55c1.45,1.23-4.69,7.47-5.88,6.36s4.43-7.59,5.88-6.36Z" fill="currentColor" stroke-width="0"/></g></svg>