<svg id="uuid-1d46d7f6-4a7a-4013-b997-7e75edcabe34" xmlns="http://www.w3.org/2000/svg" width="50" height="50" viewBox="0 0 50 50"><path d="M14.07,12.26c-.62.79,3.13,8.07,3.49,8.03s.85-2.94.85-2.94l3.71,4.13-6.58,7.11s-6.52-6.41-7.54-5.39,6.75,8.87,7.6,8.79S31.6,13.94,31.98,13.96s.08,6.98.08,6.98c0,0-12.81,13-12.88,13.72s6.32,7.98,7.12,7.37-4.22-6.59-4.22-6.59l6.27-7,5.79,5.63s.95,6.46,1.66,6.48.83-5.58.83-5.58c0,0,5.47-.31,5.47-1.01s-6.35-1.01-6.35-1.01l-5.86-6.08s4.61-4.42,4.72-5.15.37-13.63-.28-13.77-10.71,11.95-10.71,11.95l-3.88-3.89s3.5-.05,3.52-.62-8.57-3.91-9.19-3.11Z" fill="currentColor" stroke-width="0"/><path d="M16.61,34.48c1.45,1.23-4.69,7.47-5.88,6.36s4.43-7.59,5.88-6.36Z" fill="currentColor" stroke-width="0"/></svg>