<svg id="uuid-a26ed3d3-d5e1-4768-9fc4-05b59f2b0c04" xmlns="http://www.w3.org/2000/svg" width="17.85" height="30.46" viewBox="0 0 17.85 30.46"><g id="uuid-b8d3fb21-5df2-42cf-8655-0354ed1d7182"><path d="M3.56,7.99c.42-.09,2.64,5.85,2.2,6.12s-1.6-2.47-1.72-2.55c-.12-.09-2.02,5.29-2.08,7.54-.06,2.26.74,8.85,7.13,9.21,6.86-.24,6.97-7.56,6.86-8.23s-1.56-9.53-2.13-9.48c-.57.06-1.52,3.86-1.94,3.62s-2.03-5.58-2.5-5.58-.98,1.84-2.14,3.41c-.77-1.33,1.38-12.05,2.07-12.05s2.47,10.99,2.68,10.96c.21-.03,1.49-2.85,2.2-2.73.71.12,3.65,8.5,3.65,11.79s-1.48,10.13-8.35,10.43C2.02,30.77.01,23.37,0,19.63c-.01-3.86,3.15-11.55,3.56-11.64Z" fill="currentColor" stroke-width="0"/><path d="M6.8,18.92c-1.96,2-.3,6.01,2.12,5.79s4.25-2.5,3.58-4.68-3.74-3.12-5.7-1.11Z" fill="currentColor" stroke-width="0"/></g></svg>