<svg id="uuid-5808594d-cef9-48cb-9068-96d783d26e2b" xmlns="http://www.w3.org/2000/svg" width="50" height="50" viewBox="0 0 50 50"><path d="M19.64,17.76c.42-.09,2.64,5.85,2.2,6.12s-1.6-2.47-1.72-2.55c-.12-.09-2.02,5.29-2.08,7.54-.06,2.26.74,8.85,7.13,9.21,6.86-.24,6.97-7.56,6.86-8.23s-1.56-9.53-2.13-9.48c-.57.06-1.52,3.86-1.94,3.62s-2.03-5.58-2.5-5.58-.98,1.84-2.14,3.41c-.77-1.33,1.38-12.05,2.07-12.05s2.47,10.99,2.68,10.96c.21-.03,1.49-2.85,2.2-2.73.71.12,3.65,8.5,3.65,11.79s-1.48,10.13-8.35,10.43c-7.49.33-9.49-7.08-9.5-10.81-.01-3.86,3.15-11.55,3.56-11.64Z" fill="currentColor" stroke-width="0"/><path d="M22.88,28.69c-1.96,2-.3,6.01,2.12,5.79s4.25-2.5,3.58-4.68-3.74-3.12-5.7-1.11Z" fill="currentColor" stroke-width="0"/></svg>