<svg id="uuid-f95fb2a2-55f0-4e71-ab67-8c30cbe8261e" xmlns="http://www.w3.org/2000/svg" width="32.88" height="41.76" viewBox="0 0 32.88 41.76"><g id="uuid-fcc9fa1b-f0bd-4270-b565-590ebda16024"><path d="M16.35,0s.65,2.73.48,4.1-2.97,3.27-3.21,4.51.71,4.4.42,5.41-2.84,2.81-2.84,2.81c0,0,.94-2.87.88-3.94s-1.31-3.03-1.31-3.03c0,0,0,3.45-.36,4.1s-3.56,1.6-3.98,6.59c-.42,4.99,4.93,8.61,9.03,8.61,3.69,0,5.05-2.02,5.23-4.57.18-3.21-2.02-4.75-3.92-4.81s-3.21,1.29-3.48,2.54.93,2.69,2.35,2.63,2.02-1.54,2.02-1.54c.51.45.65,1.18.55,1.77s-.83,1.67-2.91,1.49-3.93-2.9-3.82-4.39,2.22-3.77,5.28-3.77,4.54,1.73,5.13,2.38,1.59,3.1.28,5.96c2.32-.24,5.52-4.57,5.52-6.83s-1.43-4.69-1.43-4.69c0,0-2.08-2.79-3.15-2.97s-.95-3.51-.83-3.74-1.66,2.01-1.13,3.62,2.32,4.75,2.32,4.75c0,0-2-1.86-2.85-2.44s-1.54-1.23-2.06-1.79-.87-3.37-.33-4.25,1.35-2.28,1.26-4.05-3.15-4.46-3.15-4.46Z" fill="currentColor" stroke-width="0"/><path d="M0,28.91s2.64-1.78,5.41-.09c2.48,1.52,3.25,5.52,4.22,5.35s4.17-2.53,7.42-2.47,5.55,2.69,6.49,2.46,4.45-4.8,5.83-5.23c1.56-.49,3.52.62,3.52.62-2.52-.04-3.32.87-3.86,1.29s-2.92,4.8-5.11,5.1-2.94-1.25-6.64-1.78-5.5,2.26-7.76,1.81-4.15-5.18-5.29-6.12c-.83-.69-4.22-.95-4.22-.95Z" fill="currentColor" stroke-width="0"/><path d="M12.84,41.52s2.47-4.81,4.7-4.81,4.15,5.05,4.15,5.05c0,0-2.77-2.13-4.31-2.2s-4.54,1.96-4.54,1.96Z" fill="currentColor" stroke-width="0"/></g></svg>