<svg id="uuid-104fa760-cd23-4bc6-9434-caf7e574fcbe" xmlns="http://www.w3.org/2000/svg" width="50" height="50" viewBox="0 0 50 50"><path d="M24.08,6.52c-2.5,0-9.59,4.78-9.39,10.75.22,6.44,6.27,5.76,6.27,5.76,0,0-3.68-2.1-3.72-4-.11-4.63,2.32-5.22,2.74-6.82.18,1.71,1,1.26,1.92,5.08,1.17-.66,2.17-2.52,2.17-2.52,0,0,.63,1.33.77,2.41.16,1.19-1.36,4.98-1.36,4.98,0,0,3.09-1.69,3.71-5.68.4-2.53-1.14-2.76-1.6-5.19-1.09,1.76-2.94,2.29-2.94,2.29,0,0-.71-3.86,1.43-7.07Z" fill="currentColor" stroke-width="0"/><path d="M20.16,25.36c.17,1.33,2.92.96,4.34.53s2.86-2.5,1.96-3.39-1.83,1.11-3.15,1.61-3.32-.08-3.15,1.25Z" fill="currentColor" stroke-width="0"/><path d="M22.95,28.33c.14,1.15,2.24.51,3.21,0s2.56-1.69,1.72-2.44-1.66.81-2.47,1.22-2.61.07-2.47,1.22Z" fill="currentColor" stroke-width="0"/><path d="M26.45,29.69c-2.48,1.58,5.67,10.51,8.38,13.78,1.09-1.46,0-3.92,0-3.92,0,0-6.3-11.18-8.38-9.86Z" fill="currentColor" stroke-width="0"/></svg>