<svg id="uuid-8666ff73-52cf-4df5-8487-cf5a6334572e" xmlns="http://www.w3.org/2000/svg" width="29.85" height="31.62" viewBox="0 0 29.85 31.62"><g id="uuid-b01a395d-45d8-4b2d-91e5-f693a274e258"><path d="M20.21,11.77l-.3-.3c-.42-.42-1.1-.42-1.52,0l-6.06,6.06c-.63-.5-1.61-.47-2.19.11L.48,27.28c-.31.31-.48.72-.48,1.16s.17.85.48,1.16l1.53,1.53c.31.31.72.48,1.16.48s.85-.17,1.16-.48l9.65-9.65c.31-.31.48-.72.48-1.16,0-.35-.12-.69-.32-.97l6.06-6.06c.42-.42.42-1.1,0-1.52ZM12.93,20.42L3.27,30.08s-.15.05-.2,0l-1.53-1.53c-.06-.06-.06-.15,0-.2l9.65-9.65s.06-.04.1-.04.07.01.1.04l1.53,1.53s.05.15,0,.2Z" fill="currentColor" stroke-width="0"/><path d="M13.39.26l-1.12,1.21c-.28.29-.26.76.04,1.04l12.45,11.21c1.01.91,1.77,2.06,2.21,3.34l2.17,6.34c.16.41.77.27.72-.17l-.99-6.98c-.22-2.15-1.22-4.14-2.82-5.59L14.56.22c-.34-.31-.86-.29-1.17.04Z" fill="currentColor" stroke-width="0"/><rect x="22.13" y="5.62" width="6.26" height="2.12" rx=".87" ry=".87" transform="translate(12.12 -15.9) rotate(45)" fill="currentColor" stroke-width="0"/></g></svg>