<svg id="uuid-590c4f63-d5c1-4609-8c98-d3ec3996a595" xmlns="http://www.w3.org/2000/svg" width="50" height="50" viewBox="0 0 50 50"><path d="M30.28,20.96l-.3-.3c-.42-.42-1.1-.42-1.52,0l-6.06,6.06c-.63-.5-1.61-.47-2.19.11l-9.65,9.65c-.31.31-.48.72-.48,1.16s.17.85.48,1.16l1.53,1.53c.31.31.72.48,1.16.48s.85-.17,1.16-.48l9.65-9.65c.31-.31.48-.72.48-1.16,0-.35-.12-.69-.32-.97l6.06-6.06c.42-.42.42-1.1,0-1.52ZM23,29.61l-9.65,9.65s-.15.05-.2,0l-1.53-1.53c-.06-.06-.06-.15,0-.2l9.65-9.65s.06-.04.1-.04.07.01.1.04l1.53,1.53s.05.15,0,.2Z" fill="currentColor" stroke-width="0"/><path d="M23.46,9.45l-1.12,1.21c-.28.29-.26.76.04,1.04l12.45,11.21c1.01.91,1.77,2.06,2.21,3.34l2.17,6.34c.16.41.77.27.72-.17l-.99-6.98c-.22-2.15-1.22-4.14-2.82-5.59l-11.48-10.43c-.34-.31-.86-.29-1.17.04Z" fill="currentColor" stroke-width="0"/><rect x="32.2" y="14.81" width="6.26" height="2.12" rx=".87" ry=".87" transform="translate(21.57 -20.33) rotate(45)" fill="currentColor" stroke-width="0"/></svg>