<svg id="uuid-ec21566e-e841-40d0-8d21-b436a2f4f73a" xmlns="http://www.w3.org/2000/svg" width="50" height="50" viewBox="0 0 50 50"><path d="M13.83,29.39c-.95-.45,4.96-10.25,4.96-10.25,0,0-1.57-3.3-1.29-3.65s2.75,1.25,2.75,1.25c0,0,5.05-8.29,5.63-8.29s5.48,7.49,5.48,7.49c0,0,2.17-1.43,2.45-1.16s-1.31,3.01-1.31,3.01c0,0,4.56,10.21,4.07,10.63s-10.44-15.89-10.44-15.89c0,0-11.35,17.32-12.3,16.87Z" fill="currentColor" stroke-width="0"/><path d="M17.11,32.04c-.79-1.37,2.72-5.15,7.95-5.15s9.62,2.98,9.03,4.31-4.13-2.18-8.79-2.06-7.4,4.28-8.18,2.91Z" fill="currentColor" stroke-width="0"/><path d="M36.05,38.16s5.2-10.04,3.97-10.57-6.58,10.66-6.58,10.66l-4.69-.15s.62-7.64-3.42-7.75-3.77,8.08-3.77,8.08l-4.78-.21s-5.94-11.11-6.88-10.63c-.94.48,5.45,11.08,5.17,11.54-.28.46-1.56-.1-1.78.89-.22,1,1.78,1.47,1.78,1.47,0,0,10.65.15,12.12,0,1.47-.15,2.48-1.07,4.02-.89s1.66.74,3.37.89c1.71.15,3.61-.45,3.79-1.29.18-.85-2.32-2.03-2.32-2.03ZM27.69,38.34h-4.03s-.58-6.03,2.01-6.03,2.03,6.03,2.03,6.03Z" fill="currentColor" stroke-width="0"/></svg>