<svg id="uuid-c6cf4c98-9f4d-4d09-b83f-b9e7dfb5bcc6" xmlns="http://www.w3.org/2000/svg" width="50" height="50" viewBox="0 0 50 50"><path d="M10.99,26.86c-.57-.75.14-6.77.14-6.77,0,0-1.63-.8-1.07-1.87s27.04-.27,27.04-.27c0,0,3.1.38,2.94,1.83s-1.87,1.16-1.87,1.16c0,0,1.12,7.77-.45,8.11s-1.65-8.06-1.65-8.06h-2.02s.14,14.88.14,14.88l2.72-.49s.03-3.36,1.11-3.39,1.77,4.86.98,5.61-9.73.6-9.8-.76,2.94-1.13,2.94-1.13l-.59-15.53h-13.46l-.12,16.4s3.2-.04,3.33.86-5.99.88-6.18.73-.27-.93-.39-1.03-3.55.07-3.58-.16-1-5.84.13-6.06,1.04,3.88,1.19,4,3.21.18,3.21.18v-14.9s-2.54-.24-2.54-.24c0,0,.36,7.76-.06,7.96s-1.55-.29-2.12-1.04Z" fill="currentColor" stroke-width="0"/><path d="M15.54,12.72c.71-1.63,2.85-.88,2.94.06,11.63-.03,16.57-.25,16.57,1.37s-4.63.86-16.75.28c-.89.98-3.56.68-2.76-1.71Z" fill="currentColor" stroke-width="0"/></svg>